<svg width="229" height="229" viewBox="0 0 229 229" fill="none" xmlns="http://www.w3.org/2000/svg">
<rect x="0.447266" y="0.447266" width="228.105" height="228.105" rx="107.429" fill="white"/>
<path d="M159.365 118.346C170.096 112.183 180.798 105.969 191.565 99.87C201.785 94.0797 213.809 99.4199 216.126 110.688C217.467 117.207 214.556 124.249 208.671 127.678C189.377 138.922 170.055 150.121 150.637 161.149C144.627 164.562 138.436 163.934 132.958 159.751C127.394 155.505 125.641 149.648 126.946 142.831C128.436 137.641 131.845 134.171 136.496 131.576C144.184 127.285 151.748 122.768 159.365 118.346Z" fill="#FABC05"/>
<path d="M167.242 113.864C156.539 107.653 145.808 101.49 135.142 95.2165C125.017 89.2604 123.631 76.1773 132.23 68.5355C137.205 64.1162 144.758 63.1148 150.671 66.4967C170.056 77.5842 189.416 88.7187 208.675 100.021C214.635 103.52 217.186 109.196 216.305 116.031C215.408 122.971 211.213 127.419 204.657 129.698C199.417 131.003 194.708 129.784 190.135 127.054C182.574 122.541 174.88 118.249 167.242 113.864Z" fill="#109D58"/>
<path d="M69.6871 109.47C62.8189 113.372 55.9467 117.267 49.0856 121.181C45.0719 123.471 41.1028 125.839 37.0684 128.09C28.9398 132.627 19.2824 129.968 14.6735 121.976C10.275 114.351 12.8029 104.464 20.6312 99.8939C39.7715 88.722 58.9613 77.6313 78.2204 66.6649C84.127 63.3013 90.2551 63.7244 95.7172 67.7452C101.482 71.9892 103.369 77.9611 102.075 84.9624C101.272 86.6562 100.792 88.6423 99.5899 89.9767C97.634 92.1477 95.4113 94.2263 92.9368 95.7527C85.279 100.475 77.45 104.919 69.6871 109.47Z" fill="#E94436"/>
<path d="M61.8133 113.851C68.6273 117.847 75.4366 121.852 82.257 125.837C86.246 128.168 90.2812 130.422 94.2479 132.789C102.242 137.561 104.768 147.253 100.151 155.24C95.7457 162.863 85.9202 165.618 78.0481 161.122C58.8026 150.132 39.6033 139.06 20.4764 127.864C14.6104 124.43 11.9128 118.911 12.6641 112.171C13.4568 105.055 17.6848 100.435 24.3953 98.0557C26.2635 97.9051 28.2234 97.3268 29.9809 97.7012C32.8386 98.3099 35.7505 99.195 38.3094 100.575C46.2277 104.845 53.9906 109.404 61.8133 113.851Z" fill="#4385F3"/>
<rect x="0.447266" y="0.447266" width="228.105" height="228.105" rx="107.429" stroke="black" stroke-width="0.894531"/>
</svg>
