<svg width="1467" height="1538" viewBox="0 0 1467 1538" fill="none" xmlns="http://www.w3.org/2000/svg">
<path d="M62.9637 639.178C71.164 639.178 77.8117 632.531 77.8117 624.33C77.8117 616.13 71.164 609.482 62.9637 609.482C54.7634 609.482 48.1157 616.13 48.1157 624.33C48.1157 632.531 54.7634 639.178 62.9637 639.178Z" stroke="black" stroke-width="5"/>
<path d="M92.0588 625.843C122.008 622.761 169 626.406 174.555 649.573C180.109 672.739 158.899 681.212 147.601 682.552C104.583 689.389 47.5439 686.172 47.5439 649.573" stroke="black" stroke-width="5" stroke-linecap="round"/>
<path d="M81.238 660.88C83.1304 660.88 84.6644 659.346 84.6644 657.454C84.6644 655.561 83.1304 654.027 81.238 654.027C79.3456 654.027 77.8115 655.561 77.8115 657.454C77.8115 659.346 79.3456 660.88 81.238 660.88Z" stroke="black" stroke-width="5"/>
<path d="M114.36 657.454C114.36 659.118 112.809 660.88 110.363 660.88C107.916 660.88 106.365 659.118 106.365 657.454C106.365 655.79 107.916 654.027 110.363 654.027C112.809 654.027 114.36 655.79 114.36 657.454Z" stroke="black" stroke-width="5"/>
<path d="M139.488 660.88C141.38 660.88 142.914 659.346 142.914 657.454C142.914 655.561 141.38 654.027 139.488 654.027C137.596 654.027 136.062 655.561 136.062 657.454C136.062 659.346 137.596 660.88 139.488 660.88Z" stroke="black" stroke-width="5"/>
<path d="M1189.7 221.152C1197.27 221.152 1203.4 215.016 1203.4 207.446C1203.4 199.877 1197.27 193.74 1189.7 193.74C1182.13 193.74 1175.99 199.877 1175.99 207.446C1175.99 215.016 1182.13 221.152 1189.7 221.152Z" stroke="black" stroke-width="5"/>
<path d="M1216.62 195.453C1226.67 195.453 1255.37 195.453 1268.87 195.453C1279.8 195.453 1285.06 197.872 1285.06 214.803C1285.06 231.254 1284.93 252.563 1285.06 261.163C1285.16 267.21 1282.15 273.902 1272.11 274.869C1262.06 275.837 1221.75 275.272 1202.85 274.869C1195.83 274.869 1183.42 270.89 1183.42 254.713V236.572" stroke="black" stroke-width="5" stroke-linecap="round"/>
<path d="M1209.68 224.006L1234.81 241.138" stroke="black" stroke-width="5" stroke-linecap="round"/>
<path d="M1234.81 241.139L1280.5 198.879" stroke="black" stroke-width="5" stroke-linecap="round"/>
<path d="M1246.39 230.859L1258.88 243.423L1271.36 255.987" stroke="black" stroke-width="5" stroke-linecap="round"/>
<path d="M1200.55 255.987L1218.97 230.859" stroke="black" stroke-width="5" stroke-linecap="round"/>
<path d="M1290.14 1077.74C1286.34 1081.55 1283.07 1084.82 1280.82 1087.08C1274.94 1092.96 1268.77 1089.53 1266.42 1087.08L1228.93 1050.96C1223.39 1045.81 1218.71 1040.73 1197.79 1020.77C1195.65 1018.63 1192.26 1013.15 1195.81 1008.4C1199.37 1003.65 1219.37 978.71 1228.93 966.833C1231.82 962.635 1238.12 957.64 1246.16 965.11C1253.08 971.543 1276.8 993.81 1297.06 1010.74" stroke="black" stroke-width="5" stroke-linecap="round"/>
<path d="M1228.53 968.119C1229.71 989.786 1237.66 1024.66 1278.78 1037.79" stroke="black" stroke-width="5" stroke-linecap="round"/>
<path d="M1332.82 1039.47C1330.93 1034.68 1316.46 1029.1 1310.99 1039.47C1305.35 1050.16 1309.66 1059.17 1313.33 1060.94C1318.01 1063.2 1324.89 1064.38 1332.15 1051.39" stroke="black" stroke-width="5" stroke-linecap="round"/>
<path d="M1334.02 1032.8C1333.59 1035.3 1333.16 1036.35 1332.82 1039.47C1332.37 1043.52 1332.09 1047.78 1332.15 1051.39C1332.29 1057.74 1333.55 1062.12 1337.11 1060.01C1344.26 1055.77 1348.12 1052.29 1349.15 1048.74C1350.86 1042.78 1350.87 1031.36 1341.23 1023.9C1329.61 1014.89 1316.49 1015.13 1306.18 1023.9C1295.94 1032.6 1293.14 1046.53 1293.7 1053.76C1294.31 1061.66 1300.21 1078.64 1319.46 1078.9C1338.71 1079.17 1349.14 1068.79 1350.74 1063.94" stroke="black" stroke-width="5" stroke-linecap="round"/>
<path d="M319.376 896.814C315.27 880.962 301.635 851.728 279.952 861.61C258.269 871.492 270.917 889.196 279.952 896.814C286.032 900.932 299.103 905.337 302.744 890.02C306.385 874.703 291.04 868.403 286.728 875.198C284.454 877.874 281.885 884.585 289.808 890.02" stroke="black" stroke-width="5" stroke-linecap="round"/>
<path d="M413.277 112.842L440.327 126.866C441.934 127.699 443.848 127.688 445.445 126.837L472.333 112.504C472.699 112.309 473.129 112.618 473.061 113.027L468.083 143.087C467.787 144.873 468.389 146.69 469.692 147.946L491.632 169.088C491.931 169.376 491.77 169.881 491.36 169.943L461.233 174.497C459.443 174.767 457.901 175.901 457.109 177.529L443.782 204.928C443.6 205.301 443.07 205.304 442.885 204.934L429.244 177.688C428.434 176.07 426.879 174.954 425.086 174.704L394.909 170.495C394.498 170.438 394.332 169.935 394.627 169.644L416.323 148.251C417.612 146.98 418.193 145.156 417.877 143.374L412.555 113.374C412.482 112.965 412.909 112.652 413.277 112.842Z" stroke="black" stroke-width="5"/>
<path d="M768.813 639.082V736.165" stroke="black" stroke-width="5" stroke-linecap="round"/>
<path d="M841.911 650.504V743.018" stroke="black" stroke-width="5" stroke-linecap="round"/>
<path d="M670.94 1070.91C646.803 1073.92 590.297 1085 577.92 1107.54C574.207 1114.3 569.899 1130.76 582.375 1142.48C594.853 1154.2 617.653 1151.12 627.493 1148.11L684.865 1125.01" stroke="black" stroke-width="5" stroke-linecap="round"/>
<path d="M999.871 900.82C954.833 902.269 755.914 998.57 662.084 1046.54C654.094 1099.4 687.812 1137.35 705.669 1149.72C799.197 1122.57 991.153 1067.54 1010.77 1064.64C1030.38 1061.75 1049.81 1047.75 1057.08 1041.11C1107.93 981.736 1070.39 931.292 1045.27 913.491C1027.39 900.819 1011.95 900.43 999.871 900.82Z" fill="black"/>
<path d="M577.996 887.348C609.907 889.476 749.113 943.427 815.071 971.703L664.226 1047.08C596.719 1066.88 555.248 1060.36 542.583 1056.09C469.477 1020.87 498.12 933.974 527.166 901.787C545.886 885.854 566.563 886.585 577.996 887.348Z" fill="black"/>
<path d="M933.154 1081.19C953.098 1090.78 963.881 1103.33 969.349 1113.63C981.066 1140.45 960.027 1156.57 936.006 1148.99C922.732 1144.8 919.603 1141.99 912.572 1136.16C909.004 1133.2 892.343 1117.72 873.32 1099.44" stroke="black" stroke-width="5" stroke-linecap="round"/>
<path d="M550.093 622.079L565.561 903.177C565.853 908.479 570.237 912.628 575.546 912.628H1005.52C1011.04 912.628 1015.52 908.151 1015.52 902.628V615.524C1015.52 609.949 1010.96 605.45 1005.38 605.525L559.943 611.53C554.258 611.607 549.78 616.402 550.093 622.079Z" fill="#D3D3D3"/>
<rect x="563.226" y="916.625" width="452.293" height="21.7009" rx="10" fill="black"/>
<path d="M843.053 484.891C882.838 484.32 970.404 514.586 1005.24 609.956" stroke="black" stroke-width="5" stroke-linecap="round"/>
<path d="M755.679 484.32C664.878 502.024 621.476 540.857 587.211 615.668" stroke="black" stroke-width="5" stroke-linecap="round"/>
<path d="M1059.49 574.647L1081.76 537.527" stroke="black" stroke-width="5" stroke-linecap="round"/>
<path d="M1081.76 584.926L1112.03 559.799" stroke="black" stroke-width="5" stroke-linecap="round"/>
<path d="M1086.33 602.06C1092.23 604.344 1105.63 606.514 1112.03 596.92" stroke="black" stroke-width="5" stroke-linecap="round"/>
<path d="M502.121 567.698L467.856 532.291" stroke="black" stroke-width="5" stroke-linecap="round"/>
<path d="M536.956 561.987L516.398 508.877" stroke="black" stroke-width="5" stroke-linecap="round"/>
<path d="M493.555 587.685L467.856 577.977" stroke="black" stroke-width="5" stroke-linecap="round"/>
<path d="M1028.08 674.016C1049.21 707.138 1073.2 746.542 1028.08 820.685" stroke="black" stroke-width="5" stroke-linecap="round"/>
<path d="M843.624 487.747C848.764 472.899 844.082 462.907 839.513 461.004C812.102 486.131 770.527 476.804 755.108 461.575C749.625 466.6 752.823 481.465 755.107 486.034C784.803 518.928 827.063 500.501 843.624 487.747Z" fill="black"/>
<path d="M721.985 579.119L733.072 562.103C740.898 550.091 756.13 545.295 769.427 550.656L797.377 561.926C809.316 566.741 822.996 563.401 831.374 553.627L858.473 522.012" stroke="black" stroke-width="5" stroke-linecap="round"/>
<path d="M543.238 695.047C534.672 715.225 524.507 764.147 552.375 798.412" stroke="black" stroke-width="5" stroke-linecap="round"/>
<path d="M922.368 254.298C909.805 299.413 903.523 303.41 885.248 323.398C885.248 303.645 881.855 270.488 881.855 256.682C822.018 256.682 771.52 232.256 753.75 220.043C754.386 261.461 715.557 288.543 715.557 288.543C715.557 288.543 721.127 305.269 724.309 342.706C726.856 372.654 719.535 366.866 715.557 360.229C704.099 323.271 685.32 333.147 677.363 342.706C579.723 184.056 729.878 153.401 758.523 156.322C780.166 137.842 810.349 123.361 831.567 121.237C908.091 113.577 942.74 181.145 922.368 254.298Z" fill="black"/>
<path d="M716.895 388.465C727.174 451.221 796.169 496.347 845.958 445.51C895.747 394.674 885.783 301.62 880.464 258.197" stroke="black" stroke-width="5" stroke-linecap="round"/>
<path d="M676.235 338.816C669.953 354.235 675.846 388.403 716.895 388.403" stroke="black" stroke-width="5" stroke-linecap="round"/>
<path d="M694.339 347.285C693.43 350.585 694.157 358.402 704.331 363.275" stroke="black" stroke-width="5" stroke-linecap="round"/>
<path d="M879.08 380.408C892.478 374.822 901.923 354.138 898.29 321.016" stroke="black" stroke-width="5" stroke-linecap="round"/>
<path d="M803.698 418.099C816.833 421.526 816.002 412.096 825.97 403.822" stroke="black" stroke-width="5" stroke-linecap="round"/>
<circle cx="842.908" cy="338.318" r="8.56615" fill="black"/>
<circle cx="767.526" cy="339.461" r="8.56615" fill="black"/>
<path d="M748.875 319.874C750.678 314.567 758.456 304.748 775.145 307.932" stroke="black" stroke-width="5" stroke-linecap="round"/>
<path d="M828.826 309.594C832.806 306.146 843.632 301.32 855.095 309.594" stroke="black" stroke-width="5" stroke-linecap="round"/>
<path d="M801.193 333.58C799.863 344.858 798.959 367.728 805.982 368.987" stroke="black" stroke-width="5" stroke-linecap="round"/>
<path d="M1130.3 851.619C1282.78 893.879 1556.67 942.42 1432.4 798.509C1393.19 759.866 1335.32 714.561 1242.24 674.586" stroke="black" stroke-width="5" stroke-linecap="round"/>
<path d="M1295.35 556.36C1390.14 495.635 1542.85 370.189 1395.28 354.199C1247.72 338.209 1112.98 393.603 1064.06 423.299" stroke="black" stroke-width="5" stroke-linecap="round"/>
<path d="M928.144 467.62C990.962 332.275 1092.61 51.7622 996.673 12.4722C876.747 -36.6404 721.414 104.987 594.635 443.064" stroke="black" stroke-width="5" stroke-linecap="round"/>
<path d="M454.927 351.028C314.442 274.123 27.6473 155.834 4.3474 297.918C-18.9525 440.002 265.71 558.519 410.954 600.017" stroke="black" stroke-width="5" stroke-linecap="round"/>
<path d="M448.247 674.586C243.23 779.093 -13.6518 923.627 128.638 998.957C186.887 1029.8 335.938 1010.95 404.467 982.967" stroke="black" stroke-width="5" stroke-linecap="round"/>
<ellipse cx="783.661" cy="1358.74" rx="282.683" ry="34.2646" fill="black"/>
<path d="M832.768 764.421C844.59 757.631 856.379 750.786 868.241 744.067C879.5 737.688 892.747 743.571 895.299 755.985C896.776 763.166 893.57 770.924 887.087 774.702C865.831 787.089 844.545 799.426 823.152 811.575C816.531 815.335 809.711 814.643 803.677 810.036C797.547 805.358 795.616 798.905 797.053 791.395C798.694 785.677 802.451 781.855 807.574 778.996C816.044 774.269 824.377 769.292 832.768 764.421Z" fill="#FABC05"/>
<path d="M841.447 759.485C829.656 752.643 817.834 745.854 806.084 738.942C794.93 732.381 793.403 717.968 802.876 709.549C808.356 704.681 816.678 703.578 823.192 707.303C844.547 719.518 865.875 731.784 887.092 744.236C893.658 748.09 896.469 754.343 895.497 761.873C894.51 769.519 889.888 774.418 882.665 776.929C876.893 778.367 871.705 777.024 866.667 774.017C858.337 769.045 849.862 764.316 841.447 759.485Z" fill="#109D58"/>
<path d="M733.975 754.644C726.408 758.943 718.837 763.233 711.279 767.545C706.857 770.068 702.485 772.676 698.04 775.157C689.085 780.155 678.446 777.225 673.369 768.421C668.523 760.02 671.308 749.128 679.932 744.094C701.018 731.786 722.158 719.568 743.375 707.487C749.882 703.782 756.633 704.248 762.651 708.677C769.002 713.353 771.081 719.932 769.655 727.645C768.77 729.511 768.242 731.699 766.917 733.169C764.762 735.56 762.314 737.85 759.588 739.532C751.152 744.734 742.527 749.63 733.975 754.644Z" fill="#E94436"/>
<path d="M725.299 759.467C732.806 763.869 740.307 768.281 747.821 772.672C752.216 775.24 756.661 777.723 761.031 780.33C769.837 785.587 772.621 796.265 767.534 805.064C762.681 813.461 751.857 816.496 743.184 811.544C721.982 799.436 700.831 787.238 679.76 774.904C673.298 771.122 670.326 765.042 671.154 757.616C672.027 749.778 676.685 744.688 684.077 742.066C686.136 741.9 688.295 741.263 690.231 741.676C693.379 742.346 696.587 743.321 699.406 744.841C708.129 749.546 716.681 754.568 725.299 759.467Z" fill="#4385F3"/>
<path d="M234.056 1473.18H251.272C253.704 1473.18 255.965 1473.71 258.056 1474.78C260.147 1475.84 261.811 1477.31 263.048 1479.19C264.285 1481.07 264.904 1483.14 264.904 1485.4C264.904 1487.66 264.328 1489.62 263.176 1491.29C262.024 1492.95 260.531 1494.21 258.696 1495.06V1495.45C261.043 1496.26 262.92 1497.6 264.328 1499.48C265.736 1501.36 266.44 1503.55 266.44 1506.07C266.44 1508.59 265.779 1510.83 264.456 1512.79C263.176 1514.75 261.427 1516.29 259.208 1517.4C257.032 1518.47 254.643 1519 252.04 1519H234.056V1473.18ZM250.952 1492.38C253 1492.38 254.643 1491.74 255.88 1490.46C257.16 1489.18 257.8 1487.7 257.8 1486.04C257.8 1484.38 257.181 1482.93 255.944 1481.69C254.749 1480.41 253.171 1479.77 251.208 1479.77H241.224V1492.38H250.952ZM252.04 1512.34C254.216 1512.34 255.944 1511.68 257.224 1510.36C258.547 1508.99 259.208 1507.39 259.208 1505.56C259.208 1503.73 258.525 1502.15 257.16 1500.82C255.837 1499.46 254.045 1498.78 251.784 1498.78H241.224V1512.34H252.04ZM287.435 1520.02C284.32 1520.02 281.504 1519.3 278.987 1517.85C276.512 1516.4 274.571 1514.39 273.163 1511.83C271.755 1509.23 271.051 1506.33 271.051 1503.13C271.051 1500.06 271.712 1497.24 273.035 1494.68C274.4 1492.08 276.299 1490.03 278.731 1488.54C281.163 1487 283.936 1486.23 287.051 1486.23C290.251 1486.23 293.024 1486.94 295.371 1488.34C297.76 1489.75 299.574 1491.71 300.811 1494.23C302.048 1496.71 302.667 1499.57 302.667 1502.81C302.667 1503.19 302.646 1503.58 302.603 1503.96C302.56 1504.34 302.539 1504.56 302.539 1504.6H278.091C278.304 1507.5 279.35 1509.74 281.227 1511.32C283.104 1512.9 285.238 1513.69 287.627 1513.69C291.296 1513.69 294.112 1511.98 296.075 1508.57L302.091 1511.45C300.683 1514.05 298.72 1516.14 296.203 1517.72C293.728 1519.26 290.806 1520.02 287.435 1520.02ZM295.499 1499.22C295.414 1498.2 295.072 1497.15 294.475 1496.09C293.878 1495.02 292.939 1494.13 291.659 1493.4C290.422 1492.63 288.864 1492.25 286.987 1492.25C284.896 1492.25 283.083 1492.89 281.547 1494.17C280.054 1495.45 279.03 1497.13 278.475 1499.22H295.499ZM323.813 1520.02C320.656 1520.02 317.818 1519.3 315.301 1517.85C312.784 1516.4 310.821 1514.39 309.413 1511.83C308.005 1509.23 307.301 1506.33 307.301 1503.13C307.301 1499.89 308.005 1496.98 309.413 1494.42C310.821 1491.86 312.784 1489.86 315.301 1488.41C317.818 1486.96 320.656 1486.23 323.813 1486.23C327.312 1486.23 330.277 1487.06 332.709 1488.73C335.184 1490.35 336.976 1492.5 338.085 1495.19L331.621 1497.88C330.085 1494.42 327.397 1492.7 323.557 1492.7C321.936 1492.7 320.421 1493.14 319.013 1494.04C317.605 1494.89 316.474 1496.11 315.621 1497.69C314.768 1499.27 314.341 1501.08 314.341 1503.13C314.341 1505.18 314.768 1506.99 315.621 1508.57C316.474 1510.15 317.605 1511.38 319.013 1512.28C320.421 1513.13 321.936 1513.56 323.557 1513.56C325.52 1513.56 327.226 1513.11 328.677 1512.22C330.128 1511.28 331.237 1509.95 332.005 1508.25L338.341 1511C337.104 1513.69 335.248 1515.86 332.773 1517.53C330.298 1519.19 327.312 1520.02 323.813 1520.02ZM358.565 1520.02C355.407 1520.02 352.57 1519.3 350.053 1517.85C347.535 1516.35 345.551 1514.33 344.101 1511.77C342.693 1509.21 341.989 1506.33 341.989 1503.13C341.989 1499.93 342.693 1497.05 344.101 1494.49C345.551 1491.93 347.535 1489.92 350.053 1488.47C352.57 1486.98 355.407 1486.23 358.565 1486.23C361.765 1486.23 364.623 1486.98 367.141 1488.47C369.658 1489.92 371.621 1491.93 373.029 1494.49C374.437 1497.05 375.141 1499.93 375.141 1503.13C375.141 1506.33 374.437 1509.21 373.029 1511.77C371.621 1514.33 369.658 1516.35 367.141 1517.85C364.623 1519.3 361.765 1520.02 358.565 1520.02ZM358.565 1513.56C360.271 1513.56 361.85 1513.13 363.301 1512.28C364.751 1511.43 365.925 1510.21 366.821 1508.63C367.717 1507.05 368.165 1505.22 368.165 1503.13C368.165 1500.99 367.717 1499.14 366.821 1497.56C365.925 1495.98 364.751 1494.79 363.301 1493.98C361.85 1493.12 360.271 1492.7 358.565 1492.7C356.901 1492.7 355.322 1493.12 353.829 1493.98C352.378 1494.79 351.205 1495.98 350.309 1497.56C349.455 1499.14 349.029 1500.99 349.029 1503.13C349.029 1505.22 349.477 1507.05 350.373 1508.63C351.269 1510.21 352.442 1511.43 353.893 1512.28C355.343 1513.13 356.901 1513.56 358.565 1513.56ZM380.656 1487.26H387.312V1491.48H387.696C388.634 1489.94 390 1488.69 391.792 1487.7C393.584 1486.72 395.461 1486.23 397.424 1486.23C399.728 1486.23 401.733 1486.77 403.44 1487.83C405.146 1488.9 406.405 1490.33 407.216 1492.12C408.325 1490.33 409.797 1488.9 411.632 1487.83C413.509 1486.77 415.642 1486.23 418.032 1486.23C421.744 1486.23 424.56 1487.38 426.48 1489.69C428.4 1491.95 429.36 1495.04 429.36 1498.97V1519H422.32V1500.12C422.32 1497.47 421.786 1495.58 420.72 1494.42C419.696 1493.27 418.16 1492.7 416.112 1492.7C413.85 1492.7 412.016 1493.63 410.608 1495.51C409.242 1497.35 408.56 1499.59 408.56 1502.23V1519H401.52V1500.12C401.52 1497.47 400.986 1495.58 399.92 1494.42C398.853 1493.27 397.253 1492.7 395.12 1492.7C392.901 1492.7 391.109 1493.63 389.744 1495.51C388.378 1497.35 387.696 1499.59 387.696 1502.23V1519H380.656V1487.26ZM451.623 1520.02C448.508 1520.02 445.692 1519.3 443.175 1517.85C440.7 1516.4 438.759 1514.39 437.351 1511.83C435.943 1509.23 435.239 1506.33 435.239 1503.13C435.239 1500.06 435.9 1497.24 437.223 1494.68C438.588 1492.08 440.487 1490.03 442.919 1488.54C445.351 1487 448.124 1486.23 451.239 1486.23C454.439 1486.23 457.212 1486.94 459.559 1488.34C461.948 1489.75 463.761 1491.71 464.999 1494.23C466.236 1496.71 466.854 1499.57 466.854 1502.81C466.854 1503.19 466.833 1503.58 466.791 1503.96C466.748 1504.34 466.727 1504.56 466.727 1504.6H442.279C442.492 1507.5 443.537 1509.74 445.415 1511.32C447.292 1512.9 449.425 1513.69 451.815 1513.69C455.484 1513.69 458.3 1511.98 460.263 1508.57L466.279 1511.45C464.871 1514.05 462.908 1516.14 460.391 1517.72C457.916 1519.26 454.993 1520.02 451.623 1520.02ZM459.687 1499.22C459.601 1498.2 459.26 1497.15 458.663 1496.09C458.065 1495.02 457.127 1494.13 455.847 1493.4C454.609 1492.63 453.052 1492.25 451.175 1492.25C449.084 1492.25 447.271 1492.89 445.735 1494.17C444.241 1495.45 443.217 1497.13 442.663 1499.22H459.687ZM497.83 1520.02C495.569 1520.02 493.521 1519.58 491.686 1518.68C489.894 1517.74 488.465 1516.46 487.398 1514.84C486.374 1513.18 485.862 1511.3 485.862 1509.21C485.862 1505.88 487.099 1503.26 489.574 1501.34C492.091 1499.42 495.27 1498.46 499.11 1498.46C502.481 1498.46 505.361 1499.03 507.75 1500.18V1498.84C507.75 1496.92 506.982 1495.34 505.446 1494.1C503.953 1492.82 502.139 1492.18 500.006 1492.18C496.763 1492.18 494.161 1493.51 492.198 1496.15L486.822 1492.44C488.315 1490.43 490.171 1488.9 492.39 1487.83C494.651 1486.77 497.19 1486.23 500.006 1486.23C504.657 1486.23 508.241 1487.41 510.758 1489.75C513.318 1492.06 514.598 1495.32 514.598 1499.54V1519H507.75V1515.1H507.366C506.342 1516.55 505.041 1517.74 503.462 1518.68C501.883 1519.58 500.006 1520.02 497.83 1520.02ZM498.982 1514.2C500.561 1514.2 502.011 1513.82 503.334 1513.05C504.699 1512.24 505.766 1511.19 506.534 1509.91C507.345 1508.59 507.75 1507.18 507.75 1505.69C505.489 1504.45 503.078 1503.83 500.518 1503.83C498.171 1503.83 496.337 1504.34 495.014 1505.37C493.691 1506.39 493.03 1507.69 493.03 1509.27C493.03 1510.72 493.606 1511.92 494.758 1512.86C495.953 1513.75 497.361 1514.2 498.982 1514.2ZM558.315 1520.02C553.963 1520.02 549.952 1518.98 546.283 1516.89C542.613 1514.8 539.712 1511.94 537.579 1508.31C535.445 1504.64 534.379 1500.57 534.379 1496.09C534.379 1491.61 535.445 1487.55 537.579 1483.93C539.712 1480.26 542.613 1477.38 546.283 1475.29C549.952 1473.2 553.963 1472.15 558.315 1472.15C561.771 1472.15 564.992 1472.77 567.979 1474.01C570.965 1475.25 573.461 1476.97 575.467 1479.19L570.475 1484.18C568.981 1482.52 567.211 1481.24 565.163 1480.34C563.115 1479.45 560.832 1479 558.315 1479C555.328 1479 552.555 1479.7 549.995 1481.11C547.435 1482.52 545.387 1484.53 543.851 1487.13C542.357 1489.73 541.611 1492.72 541.611 1496.09C541.611 1499.46 542.379 1502.45 543.915 1505.05C545.451 1507.65 547.499 1509.66 550.059 1511.06C552.619 1512.47 555.392 1513.18 558.379 1513.18C561.067 1513.18 563.328 1512.77 565.163 1511.96C566.997 1511.15 568.64 1510.06 570.091 1508.7C571.029 1507.8 571.819 1506.65 572.459 1505.24C573.141 1503.79 573.611 1502.23 573.867 1500.57H558.251V1494.17H580.587C580.843 1495.62 580.971 1496.86 580.971 1497.88C580.971 1500.78 580.501 1503.58 579.563 1506.26C578.667 1508.91 577.259 1511.21 575.339 1513.18C570.987 1517.74 565.312 1520.02 558.315 1520.02ZM602.315 1520.02C599.157 1520.02 596.32 1519.3 593.803 1517.85C591.285 1516.35 589.301 1514.33 587.851 1511.77C586.443 1509.21 585.739 1506.33 585.739 1503.13C585.739 1499.93 586.443 1497.05 587.851 1494.49C589.301 1491.93 591.285 1489.92 593.803 1488.47C596.32 1486.98 599.157 1486.23 602.315 1486.23C605.515 1486.23 608.373 1486.98 610.891 1488.47C613.408 1489.92 615.371 1491.93 616.779 1494.49C618.187 1497.05 618.891 1499.93 618.891 1503.13C618.891 1506.33 618.187 1509.21 616.779 1511.77C615.371 1514.33 613.408 1516.35 610.891 1517.85C608.373 1519.3 605.515 1520.02 602.315 1520.02ZM602.315 1513.56C604.021 1513.56 605.6 1513.13 607.051 1512.28C608.501 1511.43 609.675 1510.21 610.571 1508.63C611.467 1507.05 611.915 1505.22 611.915 1503.13C611.915 1500.99 611.467 1499.14 610.571 1497.56C609.675 1495.98 608.501 1494.79 607.051 1493.98C605.6 1493.12 604.021 1492.7 602.315 1492.7C600.651 1492.7 599.072 1493.12 597.579 1493.98C596.128 1494.79 594.955 1495.98 594.059 1497.56C593.205 1499.14 592.779 1500.99 592.779 1503.13C592.779 1505.22 593.227 1507.05 594.123 1508.63C595.019 1510.21 596.192 1511.43 597.643 1512.28C599.093 1513.13 600.651 1513.56 602.315 1513.56ZM639.815 1520.02C636.657 1520.02 633.82 1519.3 631.303 1517.85C628.785 1516.35 626.801 1514.33 625.351 1511.77C623.943 1509.21 623.239 1506.33 623.239 1503.13C623.239 1499.93 623.943 1497.05 625.351 1494.49C626.801 1491.93 628.785 1489.92 631.303 1488.47C633.82 1486.98 636.657 1486.23 639.815 1486.23C643.015 1486.23 645.873 1486.98 648.391 1488.47C650.908 1489.92 652.871 1491.93 654.279 1494.49C655.687 1497.05 656.391 1499.93 656.391 1503.13C656.391 1506.33 655.687 1509.21 654.279 1511.77C652.871 1514.33 650.908 1516.35 648.391 1517.85C645.873 1519.3 643.015 1520.02 639.815 1520.02ZM639.815 1513.56C641.521 1513.56 643.1 1513.13 644.551 1512.28C646.001 1511.43 647.175 1510.21 648.071 1508.63C648.967 1507.05 649.415 1505.22 649.415 1503.13C649.415 1500.99 648.967 1499.14 648.071 1497.56C647.175 1495.98 646.001 1494.79 644.551 1493.98C643.1 1493.12 641.521 1492.7 639.815 1492.7C638.151 1492.7 636.572 1493.12 635.079 1493.98C633.628 1494.79 632.455 1495.98 631.559 1497.56C630.705 1499.14 630.279 1500.99 630.279 1503.13C630.279 1505.22 630.727 1507.05 631.623 1508.63C632.519 1510.21 633.692 1511.43 635.143 1512.28C636.593 1513.13 638.151 1513.56 639.815 1513.56ZM676.867 1533.85C672.899 1533.85 669.613 1532.91 667.01 1531.03C664.451 1529.2 662.723 1527.04 661.827 1524.57L668.483 1521.82C669.123 1523.57 670.189 1524.95 671.683 1525.98C673.176 1527 674.904 1527.51 676.867 1527.51C679.811 1527.51 682.115 1526.62 683.779 1524.82C685.485 1523.03 686.339 1520.56 686.339 1517.4V1514.65H685.955C684.931 1516.14 683.523 1517.34 681.731 1518.23C679.981 1519.13 677.976 1519.58 675.715 1519.58C673.069 1519.58 670.595 1518.87 668.291 1517.46C666.029 1516.06 664.195 1514.09 662.786 1511.58C661.421 1509.02 660.739 1506.14 660.739 1502.94C660.739 1499.74 661.421 1496.88 662.786 1494.36C664.195 1491.8 666.029 1489.82 668.291 1488.41C670.595 1486.96 673.069 1486.23 675.715 1486.23C677.976 1486.23 679.981 1486.68 681.731 1487.58C683.523 1488.47 684.931 1489.67 685.955 1491.16H686.339V1487.26H693.059V1517.21C693.059 1520.71 692.355 1523.71 690.947 1526.23C689.581 1528.75 687.661 1530.65 685.187 1531.93C682.755 1533.21 679.981 1533.85 676.867 1533.85ZM677.059 1513.18C678.723 1513.18 680.259 1512.77 681.667 1511.96C683.075 1511.15 684.205 1509.98 685.059 1508.44C685.912 1506.86 686.339 1505.03 686.339 1502.94C686.339 1500.8 685.912 1498.97 685.059 1497.43C684.205 1495.85 683.075 1494.66 681.667 1493.85C680.259 1493.04 678.723 1492.63 677.059 1492.63C675.395 1492.63 673.859 1493.06 672.451 1493.91C671.043 1494.72 669.912 1495.92 669.059 1497.5C668.205 1499.03 667.779 1500.85 667.779 1502.94C667.779 1505.03 668.205 1506.86 669.059 1508.44C669.912 1509.98 671.043 1511.15 672.451 1511.96C673.859 1512.77 675.395 1513.18 677.059 1513.18ZM700.968 1473.18H708.008V1519H700.968V1473.18ZM730.248 1520.02C727.133 1520.02 724.317 1519.3 721.8 1517.85C719.325 1516.4 717.384 1514.39 715.976 1511.83C714.568 1509.23 713.864 1506.33 713.864 1503.13C713.864 1500.06 714.525 1497.24 715.848 1494.68C717.213 1492.08 719.112 1490.03 721.544 1488.54C723.976 1487 726.749 1486.23 729.864 1486.23C733.064 1486.23 735.837 1486.94 738.184 1488.34C740.573 1489.75 742.386 1491.71 743.624 1494.23C744.861 1496.71 745.479 1499.57 745.479 1502.81C745.479 1503.19 745.458 1503.58 745.416 1503.96C745.373 1504.34 745.352 1504.56 745.352 1504.6H720.904C721.117 1507.5 722.162 1509.74 724.04 1511.32C725.917 1512.9 728.05 1513.69 730.44 1513.69C734.109 1513.69 736.925 1511.98 738.888 1508.57L744.904 1511.45C743.496 1514.05 741.533 1516.14 739.016 1517.72C736.541 1519.26 733.618 1520.02 730.248 1520.02ZM738.312 1499.22C738.226 1498.2 737.885 1497.15 737.288 1496.09C736.69 1495.02 735.752 1494.13 734.472 1493.4C733.234 1492.63 731.677 1492.25 729.8 1492.25C727.709 1492.25 725.896 1492.89 724.36 1494.17C722.866 1495.45 721.842 1497.13 721.288 1499.22H738.312ZM752.681 1473.18H767.401C772.137 1473.18 776.254 1474.14 779.753 1476.06C783.294 1477.98 786.004 1480.69 787.881 1484.18C789.801 1487.64 790.761 1491.61 790.761 1496.09C790.761 1500.57 789.801 1504.56 787.881 1508.06C786.004 1511.51 783.294 1514.2 779.753 1516.12C776.254 1518.04 772.137 1519 767.401 1519H752.681V1473.18ZM767.209 1512.15C772.329 1512.15 776.318 1510.74 779.177 1507.93C782.078 1505.07 783.529 1501.12 783.529 1496.09C783.529 1491.1 782.078 1487.17 779.177 1484.31C776.318 1481.45 772.329 1480.02 767.209 1480.02H759.849V1512.15H767.209ZM811.931 1520.02C808.133 1520.02 804.72 1518.91 801.691 1516.7C798.661 1514.48 796.571 1511.36 795.419 1507.35L802.203 1504.6C802.885 1507.12 804.08 1509.19 805.787 1510.81C807.536 1512.39 809.627 1513.18 812.059 1513.18C814.32 1513.18 816.24 1512.6 817.819 1511.45C819.397 1510.25 820.187 1508.63 820.187 1506.58C820.187 1504.71 819.483 1503.17 818.075 1501.98C816.709 1500.74 814.299 1499.5 810.843 1498.26L807.963 1497.24C804.891 1496.17 802.309 1494.64 800.219 1492.63C798.128 1490.63 797.083 1487.98 797.083 1484.7C797.083 1482.43 797.701 1480.34 798.939 1478.42C800.176 1476.5 801.883 1474.99 804.059 1473.88C806.277 1472.73 808.773 1472.15 811.547 1472.15C815.557 1472.15 818.757 1473.13 821.147 1475.1C823.536 1477.02 825.136 1479.19 825.947 1481.62L819.483 1484.38C819.013 1482.93 818.117 1481.65 816.795 1480.54C815.472 1479.43 813.765 1478.87 811.675 1478.87C809.584 1478.87 807.813 1479.41 806.363 1480.47C804.955 1481.54 804.251 1482.9 804.251 1484.57C804.251 1486.15 804.891 1487.45 806.171 1488.47C807.451 1489.5 809.456 1490.48 812.187 1491.42L815.067 1492.38C818.992 1493.74 822.021 1495.53 824.155 1497.75C826.331 1499.93 827.419 1502.85 827.419 1506.52C827.419 1509.51 826.651 1512.02 825.115 1514.07C823.579 1516.08 821.616 1517.57 819.227 1518.55C816.88 1519.53 814.448 1520.02 811.931 1520.02ZM856.938 1520.02C852.501 1520.02 848.447 1518.98 844.778 1516.89C841.151 1514.8 838.293 1511.94 836.202 1508.31C834.111 1504.64 833.066 1500.57 833.066 1496.09C833.066 1491.61 834.111 1487.55 836.202 1483.93C838.293 1480.26 841.151 1477.38 844.778 1475.29C848.447 1473.2 852.501 1472.15 856.938 1472.15C863.807 1472.15 869.461 1474.65 873.898 1479.64L868.842 1484.57C867.263 1482.69 865.493 1481.3 863.53 1480.41C861.61 1479.47 859.413 1479 856.938 1479C853.866 1479 851.05 1479.7 848.49 1481.11C845.973 1482.52 843.967 1484.53 842.474 1487.13C841.023 1489.69 840.298 1492.67 840.298 1496.09C840.298 1499.5 841.023 1502.51 842.474 1505.11C843.967 1507.67 845.973 1509.66 848.49 1511.06C851.05 1512.47 853.866 1513.18 856.938 1513.18C862.058 1513.18 866.41 1511.04 869.994 1506.78L875.178 1511.77C873.002 1514.37 870.335 1516.4 867.178 1517.85C864.063 1519.3 860.65 1520.02 856.938 1520.02ZM897.619 1473.18H914.835C917.267 1473.18 919.528 1473.71 921.619 1474.78C923.709 1475.84 925.373 1477.31 926.611 1479.19C927.848 1481.07 928.467 1483.14 928.467 1485.4C928.467 1487.66 927.891 1489.62 926.739 1491.29C925.587 1492.95 924.093 1494.21 922.259 1495.06V1495.45C924.605 1496.26 926.483 1497.6 927.891 1499.48C929.299 1501.36 930.003 1503.55 930.003 1506.07C930.003 1508.59 929.341 1510.83 928.019 1512.79C926.739 1514.75 924.989 1516.29 922.771 1517.4C920.595 1518.47 918.205 1519 915.603 1519H897.619V1473.18ZM914.515 1492.38C916.563 1492.38 918.205 1491.74 919.443 1490.46C920.723 1489.18 921.363 1487.7 921.363 1486.04C921.363 1484.38 920.744 1482.93 919.507 1481.69C918.312 1480.41 916.733 1479.77 914.771 1479.77H904.787V1492.38H914.515ZM915.603 1512.34C917.779 1512.34 919.507 1511.68 920.787 1510.36C922.109 1508.99 922.771 1507.39 922.771 1505.56C922.771 1503.73 922.088 1502.15 920.723 1500.82C919.4 1499.46 917.608 1498.78 915.347 1498.78H904.787V1512.34H915.603ZM937.494 1473.18H953.366C956.054 1473.18 958.528 1473.77 960.79 1474.97C963.094 1476.16 964.907 1477.83 966.229 1479.96C967.595 1482.09 968.278 1484.5 968.278 1487.19C968.278 1489.88 967.595 1492.29 966.229 1494.42C964.907 1496.56 963.094 1498.22 960.79 1499.42C958.528 1500.61 956.054 1501.21 953.366 1501.21H944.662V1519H937.494V1473.18ZM953.558 1494.42C955.094 1494.42 956.438 1494.08 957.59 1493.4C958.742 1492.67 959.616 1491.76 960.214 1490.65C960.811 1489.54 961.11 1488.39 961.11 1487.19C961.11 1486 960.811 1484.85 960.214 1483.74C959.616 1482.63 958.742 1481.73 957.59 1481.05C956.438 1480.37 955.094 1480.02 953.558 1480.02H944.662V1494.42H953.558ZM975.244 1473.18H989.964C994.7 1473.18 998.817 1474.14 1002.32 1476.06C1005.86 1477.98 1008.57 1480.69 1010.44 1484.18C1012.36 1487.64 1013.32 1491.61 1013.32 1496.09C1013.32 1500.57 1012.36 1504.56 1010.44 1508.06C1008.57 1511.51 1005.86 1514.2 1002.32 1516.12C998.817 1518.04 994.7 1519 989.964 1519H975.244V1473.18ZM989.772 1512.15C994.892 1512.15 998.881 1510.74 1001.74 1507.93C1004.64 1505.07 1006.09 1501.12 1006.09 1496.09C1006.09 1491.1 1004.64 1487.17 1001.74 1484.31C998.881 1481.45 994.892 1480.02 989.772 1480.02H982.412V1512.15H989.772ZM1042.81 1520.02C1038.38 1520.02 1034.32 1518.98 1030.65 1516.89C1027.03 1514.8 1024.17 1511.94 1022.08 1508.31C1019.99 1504.64 1018.94 1500.57 1018.94 1496.09C1018.94 1491.61 1019.99 1487.55 1022.08 1483.93C1024.17 1480.26 1027.03 1477.38 1030.65 1475.29C1034.32 1473.2 1038.38 1472.15 1042.81 1472.15C1049.68 1472.15 1055.34 1474.65 1059.77 1479.64L1054.72 1484.57C1053.14 1482.69 1051.37 1481.3 1049.41 1480.41C1047.49 1479.47 1045.29 1479 1042.81 1479C1039.74 1479 1036.93 1479.7 1034.37 1481.11C1031.85 1482.52 1029.84 1484.53 1028.35 1487.13C1026.9 1489.69 1026.17 1492.67 1026.17 1496.09C1026.17 1499.5 1026.9 1502.51 1028.35 1505.11C1029.84 1507.67 1031.85 1509.66 1034.37 1511.06C1036.93 1512.47 1039.74 1513.18 1042.81 1513.18C1047.93 1513.18 1052.29 1511.04 1055.87 1506.78L1061.05 1511.77C1058.88 1514.37 1056.21 1516.4 1053.05 1517.85C1049.94 1519.3 1046.53 1520.02 1042.81 1520.02ZM1083.49 1473.18H1093.29L1106.41 1507.93H1106.79L1119.97 1473.18H1129.7V1519H1122.6V1493.34L1122.98 1485.08H1122.6L1109.48 1519H1103.72L1090.6 1485.08H1090.21L1090.6 1493.34V1519H1083.49V1473.18ZM1153.31 1520.02C1150.2 1520.02 1147.38 1519.3 1144.86 1517.85C1142.39 1516.4 1140.45 1514.39 1139.04 1511.83C1137.63 1509.23 1136.93 1506.33 1136.93 1503.13C1136.93 1500.06 1137.59 1497.24 1138.91 1494.68C1140.28 1492.08 1142.17 1490.03 1144.61 1488.54C1147.04 1487 1149.81 1486.23 1152.93 1486.23C1156.13 1486.23 1158.9 1486.94 1161.25 1488.34C1163.64 1489.75 1165.45 1491.71 1166.69 1494.23C1167.92 1496.71 1168.54 1499.57 1168.54 1502.81C1168.54 1503.19 1168.52 1503.58 1168.48 1503.96C1168.44 1504.34 1168.41 1504.56 1168.41 1504.6H1143.97C1144.18 1507.5 1145.22 1509.74 1147.1 1511.32C1148.98 1512.9 1151.11 1513.69 1153.5 1513.69C1157.17 1513.69 1159.99 1511.98 1161.95 1508.57L1167.97 1511.45C1166.56 1514.05 1164.6 1516.14 1162.08 1517.72C1159.6 1519.26 1156.68 1520.02 1153.31 1520.02ZM1161.37 1499.22C1161.29 1498.2 1160.95 1497.15 1160.35 1496.09C1159.75 1495.02 1158.81 1494.13 1157.53 1493.4C1156.3 1492.63 1154.74 1492.25 1152.86 1492.25C1150.77 1492.25 1148.96 1492.89 1147.42 1494.17C1145.93 1495.45 1144.9 1497.13 1144.35 1499.22H1161.37ZM1174.66 1487.26H1181.31V1491.48H1181.7C1182.63 1489.94 1184 1488.69 1185.79 1487.7C1187.58 1486.72 1189.46 1486.23 1191.42 1486.23C1193.73 1486.23 1195.73 1486.77 1197.44 1487.83C1199.15 1488.9 1200.4 1490.33 1201.22 1492.12C1202.32 1490.33 1203.8 1488.9 1205.63 1487.83C1207.51 1486.77 1209.64 1486.23 1212.03 1486.23C1215.74 1486.23 1218.56 1487.38 1220.48 1489.69C1222.4 1491.95 1223.36 1495.04 1223.36 1498.97V1519H1216.32V1500.12C1216.32 1497.47 1215.79 1495.58 1214.72 1494.42C1213.7 1493.27 1212.16 1492.7 1210.11 1492.7C1207.85 1492.7 1206.02 1493.63 1204.61 1495.51C1203.24 1497.35 1202.56 1499.59 1202.56 1502.23V1519H1195.52V1500.12C1195.52 1497.47 1194.99 1495.58 1193.92 1494.42C1192.85 1493.27 1191.25 1492.7 1189.12 1492.7C1186.9 1492.7 1185.11 1493.63 1183.74 1495.51C1182.38 1497.35 1181.7 1499.59 1181.7 1502.23V1519H1174.66V1487.26ZM1248.31 1520.02C1246.01 1520.02 1243.94 1519.53 1242.1 1518.55C1240.31 1517.57 1238.97 1516.33 1238.07 1514.84H1237.69V1519H1231.03V1473.18H1238.07V1486.94L1237.69 1491.35H1238.07C1238.97 1489.9 1240.31 1488.69 1242.1 1487.7C1243.94 1486.72 1246.01 1486.23 1248.31 1486.23C1251.04 1486.23 1253.56 1486.96 1255.86 1488.41C1258.21 1489.86 1260.07 1491.89 1261.43 1494.49C1262.84 1497.05 1263.54 1499.93 1263.54 1503.13C1263.54 1506.33 1262.84 1509.21 1261.43 1511.77C1260.07 1514.33 1258.21 1516.35 1255.86 1517.85C1253.56 1519.3 1251.04 1520.02 1248.31 1520.02ZM1247.09 1513.56C1248.76 1513.56 1250.29 1513.13 1251.7 1512.28C1253.15 1511.43 1254.31 1510.21 1255.16 1508.63C1256.05 1507.01 1256.5 1505.18 1256.5 1503.13C1256.5 1501.08 1256.05 1499.27 1255.16 1497.69C1254.31 1496.07 1253.15 1494.83 1251.7 1493.98C1250.29 1493.12 1248.76 1492.7 1247.09 1492.7C1245.43 1492.7 1243.87 1493.12 1242.42 1493.98C1241.01 1494.83 1239.86 1496.05 1238.97 1497.62C1238.11 1499.2 1237.69 1501.04 1237.69 1503.13C1237.69 1505.22 1238.11 1507.05 1238.97 1508.63C1239.86 1510.21 1241.01 1511.43 1242.42 1512.28C1243.87 1513.13 1245.43 1513.56 1247.09 1513.56ZM1284.25 1520.02C1281.13 1520.02 1278.32 1519.3 1275.8 1517.85C1273.32 1516.4 1271.38 1514.39 1269.98 1511.83C1268.57 1509.23 1267.86 1506.33 1267.86 1503.13C1267.86 1500.06 1268.52 1497.24 1269.85 1494.68C1271.21 1492.08 1273.11 1490.03 1275.54 1488.54C1277.98 1487 1280.75 1486.23 1283.86 1486.23C1287.06 1486.23 1289.84 1486.94 1292.18 1488.34C1294.57 1489.75 1296.39 1491.71 1297.62 1494.23C1298.86 1496.71 1299.48 1499.57 1299.48 1502.81C1299.48 1503.19 1299.46 1503.58 1299.42 1503.96C1299.37 1504.34 1299.35 1504.56 1299.35 1504.6H1274.9C1275.12 1507.5 1276.16 1509.74 1278.04 1511.32C1279.92 1512.9 1282.05 1513.69 1284.44 1513.69C1288.11 1513.69 1290.92 1511.98 1292.89 1508.57L1298.9 1511.45C1297.5 1514.05 1295.53 1516.14 1293.02 1517.72C1290.54 1519.26 1287.62 1520.02 1284.25 1520.02ZM1292.31 1499.22C1292.23 1498.2 1291.88 1497.15 1291.29 1496.09C1290.69 1495.02 1289.75 1494.13 1288.47 1493.4C1287.23 1492.63 1285.68 1492.25 1283.8 1492.25C1281.71 1492.25 1279.9 1492.89 1278.36 1494.17C1276.87 1495.45 1275.84 1497.13 1275.29 1499.22H1292.31ZM1305.59 1487.26H1312.25V1491.99H1312.63C1313.32 1490.37 1314.55 1489.03 1316.35 1487.96C1318.14 1486.85 1319.97 1486.3 1321.85 1486.3C1323.39 1486.3 1324.64 1486.51 1325.63 1486.94V1494.3C1324.17 1493.57 1322.55 1493.21 1320.76 1493.21C1318.46 1493.21 1316.52 1494.1 1314.94 1495.9C1313.4 1497.65 1312.63 1499.8 1312.63 1502.36V1519H1305.59V1487.26ZM1331.61 1487.06V1473.18H1338.78V1487.06L1338.01 1504.09H1332.32L1331.61 1487.06ZM1335.2 1519.38C1333.83 1519.38 1332.66 1518.91 1331.68 1517.98C1330.74 1516.99 1330.27 1515.82 1330.27 1514.46C1330.27 1513.09 1330.74 1511.94 1331.68 1511C1332.66 1510.06 1333.83 1509.59 1335.2 1509.59C1336.56 1509.59 1337.71 1510.06 1338.65 1511C1339.59 1511.94 1340.06 1513.09 1340.06 1514.46C1340.06 1515.82 1339.59 1516.99 1338.65 1517.98C1337.71 1518.91 1336.56 1519.38 1335.2 1519.38Z" fill="black"/>
</svg>
