<svg width="1665" height="1665" viewBox="0 0 1665 1665" fill="none" xmlns="http://www.w3.org/2000/svg">
<rect width="1665" height="1665" fill="white"/>
<path d="M162.964 701.178C171.164 701.178 177.812 694.531 177.812 686.33C177.812 678.13 171.164 671.482 162.964 671.482C154.763 671.482 148.116 678.13 148.116 686.33C148.116 694.531 154.763 701.178 162.964 701.178Z" stroke="black" stroke-width="5"/>
<path d="M192.059 687.843C222.008 684.761 269 688.406 274.555 711.573C280.109 734.739 258.899 743.212 247.601 744.552C204.583 751.389 147.544 748.172 147.544 711.573" stroke="black" stroke-width="5" stroke-linecap="round"/>
<path d="M181.238 722.88C183.13 722.88 184.665 721.346 184.665 719.454C184.665 717.561 183.13 716.027 181.238 716.027C179.346 716.027 177.812 717.561 177.812 719.454C177.812 721.346 179.346 722.88 181.238 722.88Z" stroke="black" stroke-width="5"/>
<path d="M214.36 719.454C214.36 721.118 212.81 722.88 210.363 722.88C207.916 722.88 206.365 721.118 206.365 719.454C206.365 717.79 207.916 716.027 210.363 716.027C212.81 716.027 214.36 717.79 214.36 719.454Z" stroke="black" stroke-width="5"/>
<path d="M239.488 722.88C241.38 722.88 242.914 721.346 242.914 719.454C242.914 717.561 241.38 716.027 239.488 716.027C237.595 716.027 236.061 717.561 236.061 719.454C236.061 721.346 237.595 722.88 239.488 722.88Z" stroke="black" stroke-width="5"/>
<path d="M1289.7 283.152C1297.27 283.152 1303.4 277.016 1303.4 269.446C1303.4 261.877 1297.27 255.74 1289.7 255.74C1282.13 255.74 1275.99 261.877 1275.99 269.446C1275.99 277.016 1282.13 283.152 1289.7 283.152Z" stroke="black" stroke-width="5"/>
<path d="M1316.62 257.453C1326.67 257.453 1355.37 257.453 1368.87 257.453C1379.8 257.453 1385.06 259.872 1385.06 276.803C1385.06 293.254 1384.93 314.563 1385.06 323.163C1385.16 329.21 1382.15 335.902 1372.11 336.869C1362.06 337.837 1321.75 337.272 1302.85 336.869C1295.83 336.869 1283.41 332.89 1283.41 316.713V298.572" stroke="black" stroke-width="5" stroke-linecap="round"/>
<path d="M1309.68 286.006L1334.81 303.138" stroke="black" stroke-width="5" stroke-linecap="round"/>
<path d="M1334.81 303.139L1380.5 260.879" stroke="black" stroke-width="5" stroke-linecap="round"/>
<path d="M1346.39 292.859L1358.88 305.423L1371.36 317.987" stroke="black" stroke-width="5" stroke-linecap="round"/>
<path d="M1300.55 317.987L1318.97 292.859" stroke="black" stroke-width="5" stroke-linecap="round"/>
<path d="M1390.14 1139.74C1386.34 1143.55 1383.07 1146.82 1380.82 1149.08C1374.94 1154.96 1368.77 1151.53 1366.42 1149.08L1328.93 1112.96C1323.39 1107.81 1318.71 1102.73 1297.79 1082.77C1295.65 1080.63 1292.26 1075.15 1295.81 1070.4C1299.37 1065.65 1319.37 1040.71 1328.93 1028.83C1331.82 1024.63 1338.12 1019.64 1346.16 1027.11C1353.08 1033.54 1376.8 1055.81 1397.06 1072.74" stroke="black" stroke-width="5" stroke-linecap="round"/>
<path d="M1328.53 1030.12C1329.71 1051.79 1337.66 1086.66 1378.78 1099.79" stroke="black" stroke-width="5" stroke-linecap="round"/>
<path d="M1432.82 1101.47C1430.93 1096.68 1416.46 1091.1 1410.99 1101.47C1405.35 1112.16 1409.66 1121.17 1413.33 1122.94C1418.01 1125.2 1424.89 1126.38 1432.15 1113.39" stroke="black" stroke-width="5" stroke-linecap="round"/>
<path d="M1434.02 1094.8C1433.59 1097.3 1433.16 1098.35 1432.82 1101.47C1432.37 1105.52 1432.08 1109.78 1432.15 1113.39C1432.29 1119.74 1433.55 1124.12 1437.11 1122.01C1444.26 1117.77 1448.12 1114.29 1449.15 1110.74C1450.86 1104.78 1450.87 1093.36 1441.23 1085.9C1429.61 1076.89 1416.49 1077.13 1406.18 1085.9C1395.94 1094.6 1393.14 1108.53 1393.7 1115.76C1394.31 1123.66 1400.21 1140.64 1419.46 1140.9C1438.71 1141.17 1449.14 1130.79 1450.74 1125.94" stroke="black" stroke-width="5" stroke-linecap="round"/>
<path d="M419.376 958.814C415.27 942.962 401.635 913.728 379.952 923.61C358.269 933.492 370.917 951.196 379.952 958.814C386.032 962.932 399.103 967.337 402.744 952.02C406.385 936.703 391.04 930.403 386.728 937.198C384.454 939.874 381.885 946.585 389.808 952.02" stroke="black" stroke-width="5" stroke-linecap="round"/>
<path d="M513.277 174.842L540.327 188.866C541.934 189.699 543.848 189.688 545.445 188.837L572.333 174.504C572.698 174.309 573.129 174.618 573.061 175.027L568.083 205.087C567.787 206.873 568.389 208.69 569.692 209.946L591.632 231.088C591.931 231.376 591.77 231.881 591.36 231.943L561.233 236.497C559.443 236.767 557.901 237.901 557.109 239.529L543.781 266.928C543.6 267.301 543.07 267.304 542.885 266.934L529.244 239.688C528.433 238.07 526.878 236.954 525.086 236.704L494.909 232.495C494.498 232.438 494.332 231.935 494.627 231.644L516.323 210.251C517.612 208.98 518.193 207.156 517.877 205.374L512.554 175.374C512.482 174.965 512.909 174.652 513.277 174.842Z" stroke="black" stroke-width="5"/>
<path d="M868.813 701.082V798.165" stroke="black" stroke-width="5" stroke-linecap="round"/>
<path d="M941.911 712.504V805.018" stroke="black" stroke-width="5" stroke-linecap="round"/>
<path d="M770.94 1132.91C746.803 1135.92 690.297 1147 677.92 1169.54C674.207 1176.3 669.899 1192.76 682.375 1204.48C694.853 1216.2 717.653 1213.12 727.493 1210.11L784.865 1187.01" stroke="black" stroke-width="5" stroke-linecap="round"/>
<path d="M1099.87 962.82C1054.83 964.269 855.914 1060.57 762.084 1108.54C754.094 1161.4 787.812 1199.35 805.67 1211.72C899.197 1184.57 1091.15 1129.54 1110.77 1126.64C1130.38 1123.75 1149.81 1109.75 1157.08 1103.11C1207.93 1043.74 1170.39 993.292 1145.27 975.491C1127.39 962.819 1111.95 962.43 1099.87 962.82Z" fill="black"/>
<path d="M677.996 949.348C709.907 951.476 849.112 1005.43 915.071 1033.7L764.226 1109.08C696.719 1128.88 655.248 1122.36 642.583 1118.09C569.477 1082.87 598.12 995.974 627.166 963.787C645.886 947.854 666.563 948.585 677.996 949.348Z" fill="black"/>
<path d="M1033.15 1143.19C1053.1 1152.78 1063.88 1165.33 1069.35 1175.63C1081.07 1202.45 1060.03 1218.57 1036.01 1210.99C1022.73 1206.8 1019.6 1203.99 1012.57 1198.16C1009 1195.2 992.343 1179.72 973.32 1161.44" stroke="black" stroke-width="5" stroke-linecap="round"/>
<path d="M650.093 684.079L665.561 965.177C665.853 970.479 670.237 974.628 675.546 974.628H1105.52C1111.04 974.628 1115.52 970.151 1115.52 964.628V677.524C1115.52 671.949 1110.96 667.45 1105.38 667.525L659.943 673.53C654.258 673.607 649.78 678.402 650.093 684.079Z" fill="#D3D3D3"/>
<rect x="663.226" y="978.625" width="452.293" height="21.7009" rx="10" fill="black"/>
<path d="M943.053 546.891C982.838 546.32 1070.4 576.586 1105.24 671.956" stroke="black" stroke-width="5" stroke-linecap="round"/>
<path d="M855.679 546.32C764.878 564.024 721.476 602.857 687.211 677.668" stroke="black" stroke-width="5" stroke-linecap="round"/>
<path d="M1159.49 636.647L1181.76 599.527" stroke="black" stroke-width="5" stroke-linecap="round"/>
<path d="M1181.76 646.926L1212.03 621.799" stroke="black" stroke-width="5" stroke-linecap="round"/>
<path d="M1186.33 664.06C1192.23 666.344 1205.63 668.514 1212.03 658.92" stroke="black" stroke-width="5" stroke-linecap="round"/>
<path d="M602.121 629.698L567.856 594.291" stroke="black" stroke-width="5" stroke-linecap="round"/>
<path d="M636.956 623.987L616.398 570.877" stroke="black" stroke-width="5" stroke-linecap="round"/>
<path d="M593.555 649.685L567.856 639.977" stroke="black" stroke-width="5" stroke-linecap="round"/>
<path d="M1128.08 736.016C1149.21 769.138 1173.2 808.542 1128.08 882.685" stroke="black" stroke-width="5" stroke-linecap="round"/>
<path d="M943.624 549.747C948.764 534.899 944.082 524.907 939.513 523.004C912.102 548.131 870.527 538.804 855.108 523.575C849.625 528.6 852.823 543.465 855.107 548.034C884.803 580.928 927.063 562.501 943.624 549.747Z" fill="black"/>
<path d="M821.985 641.119L833.072 624.103C840.898 612.091 856.13 607.295 869.427 612.656L897.377 623.926C909.316 628.741 922.996 625.401 931.374 615.627L958.472 584.012" stroke="black" stroke-width="5" stroke-linecap="round"/>
<path d="M643.238 757.047C634.672 777.225 624.507 826.147 652.376 860.412" stroke="black" stroke-width="5" stroke-linecap="round"/>
<path d="M1022.37 316.298C1009.8 361.413 1003.52 365.41 985.248 385.398C985.248 365.645 981.855 332.488 981.855 318.682C922.018 318.682 871.52 294.256 853.75 282.043C854.386 323.461 815.557 350.543 815.557 350.543C815.557 350.543 821.127 367.269 824.309 404.706C826.856 434.654 819.535 428.866 815.557 422.229C804.099 385.271 785.32 395.147 777.363 404.706C679.723 246.056 829.878 215.401 858.523 218.322C880.166 199.842 910.349 185.361 931.567 183.237C1008.09 175.577 1042.74 243.145 1022.37 316.298Z" fill="black"/>
<path d="M816.895 450.465C827.174 513.221 896.169 558.347 945.958 507.51C995.747 456.674 985.783 363.62 980.464 320.197" stroke="black" stroke-width="5" stroke-linecap="round"/>
<path d="M776.234 400.816C769.953 416.235 775.846 450.403 816.895 450.403" stroke="black" stroke-width="5" stroke-linecap="round"/>
<path d="M794.339 409.285C793.43 412.585 794.157 420.402 804.331 425.275" stroke="black" stroke-width="5" stroke-linecap="round"/>
<path d="M979.08 442.408C992.478 436.822 1001.92 416.138 998.29 383.016" stroke="black" stroke-width="5" stroke-linecap="round"/>
<path d="M903.698 480.099C916.833 483.526 916.002 474.096 925.97 465.822" stroke="black" stroke-width="5" stroke-linecap="round"/>
<circle cx="942.908" cy="400.318" r="8.56615" fill="black"/>
<circle cx="867.526" cy="401.461" r="8.56615" fill="black"/>
<path d="M848.875 381.874C850.678 376.567 858.456 366.748 875.144 369.932" stroke="black" stroke-width="5" stroke-linecap="round"/>
<path d="M928.826 371.594C932.806 368.146 943.632 363.32 955.095 371.594" stroke="black" stroke-width="5" stroke-linecap="round"/>
<path d="M901.194 395.58C899.863 406.858 898.959 429.728 905.983 430.987" stroke="black" stroke-width="5" stroke-linecap="round"/>
<path d="M1230.3 913.619C1382.78 955.879 1656.67 1004.42 1532.4 860.509C1493.19 821.866 1435.32 776.561 1342.24 736.586" stroke="black" stroke-width="5" stroke-linecap="round"/>
<path d="M1395.35 618.36C1490.14 557.635 1642.85 432.189 1495.28 416.199C1347.72 400.209 1212.98 455.603 1164.06 485.299" stroke="black" stroke-width="5" stroke-linecap="round"/>
<path d="M1028.14 529.62C1090.96 394.275 1192.61 113.762 1096.67 74.4722C976.747 25.3596 821.414 166.987 694.635 505.064" stroke="black" stroke-width="5" stroke-linecap="round"/>
<path d="M554.927 413.028C414.442 336.123 127.647 217.834 104.347 359.918C81.0475 502.002 365.71 620.519 510.954 662.017" stroke="black" stroke-width="5" stroke-linecap="round"/>
<path d="M548.247 736.586C343.23 841.093 86.348 985.627 228.637 1060.96C286.886 1091.8 435.938 1072.95 504.467 1044.97" stroke="black" stroke-width="5" stroke-linecap="round"/>
<ellipse cx="883.661" cy="1420.74" rx="282.683" ry="34.2646" fill="black"/>
<path d="M932.768 826.421C944.59 819.631 956.379 812.786 968.241 806.067C979.5 799.688 992.747 805.571 995.299 817.985C996.776 825.166 993.57 832.924 987.087 836.702C965.831 849.089 944.545 861.426 923.152 873.575C916.531 877.335 909.711 876.643 903.677 872.036C897.547 867.358 895.615 860.905 897.053 853.395C898.694 847.677 902.451 843.855 907.574 840.996C916.044 836.269 924.377 831.292 932.768 826.421Z" fill="#FABC05"/>
<path d="M941.447 821.485C929.656 814.643 917.834 807.854 906.084 800.942C894.93 794.381 893.403 779.968 902.876 771.549C908.356 766.681 916.678 765.578 923.192 769.303C944.547 781.518 965.875 793.784 987.091 806.236C993.658 810.09 996.468 816.343 995.497 823.873C994.51 831.519 989.888 836.418 982.665 838.929C976.893 840.367 971.705 839.024 966.667 836.017C958.337 831.045 949.861 826.316 941.447 821.485Z" fill="#109D58"/>
<path d="M833.975 816.644C826.408 820.943 818.837 825.233 811.279 829.545C806.857 832.068 802.485 834.676 798.04 837.157C789.085 842.155 778.446 839.225 773.369 830.421C768.523 822.02 771.308 811.128 779.932 806.094C801.018 793.786 822.158 781.568 843.375 769.487C849.882 765.782 856.633 766.248 862.651 770.677C869.002 775.353 871.081 781.932 869.655 789.645C868.77 791.511 868.242 793.699 866.917 795.169C864.762 797.56 862.314 799.85 859.588 801.532C851.152 806.734 842.527 811.63 833.975 816.644Z" fill="#E94436"/>
<path d="M825.299 821.467C832.806 825.869 840.307 830.281 847.821 834.672C852.216 837.24 856.661 839.723 861.031 842.33C869.838 847.587 872.621 858.265 867.535 867.064C862.681 875.461 851.857 878.496 843.184 873.544C821.982 861.436 800.831 849.238 779.76 836.904C773.298 833.122 770.326 827.042 771.154 819.616C772.027 811.778 776.685 806.688 784.078 804.066C786.136 803.9 788.295 803.263 790.231 803.676C793.379 804.346 796.587 805.321 799.406 806.841C808.129 811.546 816.681 816.568 825.299 821.467Z" fill="#4385F3"/>
<path d="M334.056 1535.18H351.272C353.704 1535.18 355.965 1535.71 358.056 1536.78C360.147 1537.84 361.811 1539.31 363.048 1541.19C364.285 1543.07 364.904 1545.14 364.904 1547.4C364.904 1549.66 364.328 1551.62 363.176 1553.29C362.024 1554.95 360.531 1556.21 358.696 1557.06V1557.45C361.043 1558.26 362.92 1559.6 364.328 1561.48C365.736 1563.36 366.44 1565.55 366.44 1568.07C366.44 1570.59 365.779 1572.83 364.456 1574.79C363.176 1576.75 361.427 1578.29 359.208 1579.4C357.032 1580.47 354.643 1581 352.04 1581H334.056V1535.18ZM350.952 1554.38C353 1554.38 354.643 1553.74 355.88 1552.46C357.16 1551.18 357.8 1549.7 357.8 1548.04C357.8 1546.38 357.181 1544.93 355.944 1543.69C354.749 1542.41 353.171 1541.77 351.208 1541.77H341.224V1554.38H350.952ZM352.04 1574.34C354.216 1574.34 355.944 1573.68 357.224 1572.36C358.547 1570.99 359.208 1569.39 359.208 1567.56C359.208 1565.73 358.525 1564.15 357.16 1562.82C355.837 1561.46 354.045 1560.78 351.784 1560.78H341.224V1574.34H352.04ZM387.435 1582.02C384.32 1582.02 381.504 1581.3 378.987 1579.85C376.512 1578.4 374.571 1576.39 373.163 1573.83C371.755 1571.23 371.051 1568.33 371.051 1565.13C371.051 1562.06 371.712 1559.24 373.035 1556.68C374.4 1554.08 376.299 1552.03 378.731 1550.54C381.163 1549 383.936 1548.23 387.051 1548.23C390.251 1548.23 393.024 1548.94 395.371 1550.34C397.76 1551.75 399.574 1553.71 400.811 1556.23C402.048 1558.71 402.667 1561.57 402.667 1564.81C402.667 1565.19 402.646 1565.58 402.603 1565.96C402.56 1566.34 402.539 1566.56 402.539 1566.6H378.091C378.304 1569.5 379.35 1571.74 381.227 1573.32C383.104 1574.9 385.238 1575.69 387.627 1575.69C391.296 1575.69 394.112 1573.98 396.075 1570.57L402.091 1573.45C400.683 1576.05 398.72 1578.14 396.203 1579.72C393.728 1581.26 390.806 1582.02 387.435 1582.02ZM395.499 1561.22C395.414 1560.2 395.072 1559.15 394.475 1558.09C393.878 1557.02 392.939 1556.13 391.659 1555.4C390.422 1554.63 388.864 1554.25 386.987 1554.25C384.896 1554.25 383.083 1554.89 381.547 1556.17C380.054 1557.45 379.03 1559.13 378.475 1561.22H395.499ZM423.813 1582.02C420.656 1582.02 417.818 1581.3 415.301 1579.85C412.784 1578.4 410.821 1576.39 409.413 1573.83C408.005 1571.23 407.301 1568.33 407.301 1565.13C407.301 1561.89 408.005 1558.98 409.413 1556.42C410.821 1553.86 412.784 1551.86 415.301 1550.41C417.818 1548.96 420.656 1548.23 423.813 1548.23C427.312 1548.23 430.277 1549.06 432.709 1550.73C435.184 1552.35 436.976 1554.5 438.085 1557.19L431.621 1559.88C430.085 1556.42 427.397 1554.7 423.557 1554.7C421.936 1554.7 420.421 1555.14 419.013 1556.04C417.605 1556.89 416.474 1558.11 415.621 1559.69C414.768 1561.27 414.341 1563.08 414.341 1565.13C414.341 1567.18 414.768 1568.99 415.621 1570.57C416.474 1572.15 417.605 1573.38 419.013 1574.28C420.421 1575.13 421.936 1575.56 423.557 1575.56C425.52 1575.56 427.226 1575.11 428.677 1574.22C430.128 1573.28 431.237 1571.95 432.005 1570.25L438.341 1573C437.104 1575.69 435.248 1577.86 432.773 1579.53C430.298 1581.19 427.312 1582.02 423.813 1582.02ZM458.565 1582.02C455.407 1582.02 452.57 1581.3 450.053 1579.85C447.535 1578.35 445.551 1576.33 444.101 1573.77C442.693 1571.21 441.989 1568.33 441.989 1565.13C441.989 1561.93 442.693 1559.05 444.101 1556.49C445.551 1553.93 447.535 1551.92 450.053 1550.47C452.57 1548.98 455.407 1548.23 458.565 1548.23C461.765 1548.23 464.623 1548.98 467.141 1550.47C469.658 1551.92 471.621 1553.93 473.029 1556.49C474.437 1559.05 475.141 1561.93 475.141 1565.13C475.141 1568.33 474.437 1571.21 473.029 1573.77C471.621 1576.33 469.658 1578.35 467.141 1579.85C464.623 1581.3 461.765 1582.02 458.565 1582.02ZM458.565 1575.56C460.271 1575.56 461.85 1575.13 463.301 1574.28C464.751 1573.43 465.925 1572.21 466.821 1570.63C467.717 1569.05 468.165 1567.22 468.165 1565.13C468.165 1562.99 467.717 1561.14 466.821 1559.56C465.925 1557.98 464.751 1556.79 463.301 1555.98C461.85 1555.12 460.271 1554.7 458.565 1554.7C456.901 1554.7 455.322 1555.12 453.829 1555.98C452.378 1556.79 451.205 1557.98 450.309 1559.56C449.455 1561.14 449.029 1562.99 449.029 1565.13C449.029 1567.22 449.477 1569.05 450.373 1570.63C451.269 1572.21 452.442 1573.43 453.893 1574.28C455.343 1575.13 456.901 1575.56 458.565 1575.56ZM480.656 1549.26H487.312V1553.48H487.696C488.634 1551.94 490 1550.69 491.792 1549.7C493.584 1548.72 495.461 1548.23 497.424 1548.23C499.728 1548.23 501.733 1548.77 503.44 1549.83C505.146 1550.9 506.405 1552.33 507.216 1554.12C508.325 1552.33 509.797 1550.9 511.632 1549.83C513.509 1548.77 515.642 1548.23 518.032 1548.23C521.744 1548.23 524.56 1549.38 526.48 1551.69C528.4 1553.95 529.36 1557.04 529.36 1560.97V1581H522.32V1562.12C522.32 1559.47 521.786 1557.58 520.72 1556.42C519.696 1555.27 518.16 1554.7 516.112 1554.7C513.85 1554.7 512.016 1555.63 510.608 1557.51C509.242 1559.35 508.56 1561.59 508.56 1564.23V1581H501.52V1562.12C501.52 1559.47 500.986 1557.58 499.92 1556.42C498.853 1555.27 497.253 1554.7 495.12 1554.7C492.901 1554.7 491.109 1555.63 489.744 1557.51C488.378 1559.35 487.696 1561.59 487.696 1564.23V1581H480.656V1549.26ZM551.623 1582.02C548.508 1582.02 545.692 1581.3 543.175 1579.85C540.7 1578.4 538.759 1576.39 537.351 1573.83C535.943 1571.23 535.239 1568.33 535.239 1565.13C535.239 1562.06 535.9 1559.24 537.223 1556.68C538.588 1554.08 540.487 1552.03 542.919 1550.54C545.351 1549 548.124 1548.23 551.239 1548.23C554.439 1548.23 557.212 1548.94 559.559 1550.34C561.948 1551.75 563.761 1553.71 564.999 1556.23C566.236 1558.71 566.854 1561.57 566.854 1564.81C566.854 1565.19 566.833 1565.58 566.791 1565.96C566.748 1566.34 566.727 1566.56 566.727 1566.6H542.279C542.492 1569.5 543.537 1571.74 545.415 1573.32C547.292 1574.9 549.425 1575.69 551.815 1575.69C555.484 1575.69 558.3 1573.98 560.263 1570.57L566.279 1573.45C564.871 1576.05 562.908 1578.14 560.391 1579.72C557.916 1581.26 554.993 1582.02 551.623 1582.02ZM559.687 1561.22C559.601 1560.2 559.26 1559.15 558.663 1558.09C558.065 1557.02 557.127 1556.13 555.847 1555.4C554.609 1554.63 553.052 1554.25 551.175 1554.25C549.084 1554.25 547.271 1554.89 545.735 1556.17C544.241 1557.45 543.217 1559.13 542.663 1561.22H559.687ZM597.83 1582.02C595.569 1582.02 593.521 1581.58 591.686 1580.68C589.894 1579.74 588.465 1578.46 587.398 1576.84C586.374 1575.18 585.862 1573.3 585.862 1571.21C585.862 1567.88 587.099 1565.26 589.574 1563.34C592.091 1561.42 595.27 1560.46 599.11 1560.46C602.481 1560.46 605.361 1561.03 607.75 1562.18V1560.84C607.75 1558.92 606.982 1557.34 605.446 1556.1C603.953 1554.82 602.139 1554.18 600.006 1554.18C596.763 1554.18 594.161 1555.51 592.198 1558.15L586.822 1554.44C588.315 1552.43 590.171 1550.9 592.39 1549.83C594.651 1548.77 597.19 1548.23 600.006 1548.23C604.657 1548.23 608.241 1549.41 610.758 1551.75C613.318 1554.06 614.598 1557.32 614.598 1561.54V1581H607.75V1577.1H607.366C606.342 1578.55 605.041 1579.74 603.462 1580.68C601.883 1581.58 600.006 1582.02 597.83 1582.02ZM598.982 1576.2C600.561 1576.2 602.011 1575.82 603.334 1575.05C604.699 1574.24 605.766 1573.19 606.534 1571.91C607.345 1570.59 607.75 1569.18 607.75 1567.69C605.489 1566.45 603.078 1565.83 600.518 1565.83C598.171 1565.83 596.337 1566.34 595.014 1567.37C593.691 1568.39 593.03 1569.69 593.03 1571.27C593.03 1572.72 593.606 1573.92 594.758 1574.86C595.953 1575.75 597.361 1576.2 598.982 1576.2ZM658.315 1582.02C653.963 1582.02 649.952 1580.98 646.283 1578.89C642.613 1576.8 639.712 1573.94 637.579 1570.31C635.445 1566.64 634.379 1562.57 634.379 1558.09C634.379 1553.61 635.445 1549.55 637.579 1545.93C639.712 1542.26 642.613 1539.38 646.283 1537.29C649.952 1535.2 653.963 1534.15 658.315 1534.15C661.771 1534.15 664.992 1534.77 667.979 1536.01C670.965 1537.25 673.461 1538.97 675.467 1541.19L670.475 1546.18C668.981 1544.52 667.211 1543.24 665.163 1542.34C663.115 1541.45 660.832 1541 658.315 1541C655.328 1541 652.555 1541.7 649.995 1543.11C647.435 1544.52 645.387 1546.53 643.851 1549.13C642.357 1551.73 641.611 1554.72 641.611 1558.09C641.611 1561.46 642.379 1564.45 643.915 1567.05C645.451 1569.65 647.499 1571.66 650.059 1573.06C652.619 1574.47 655.392 1575.18 658.379 1575.18C661.067 1575.18 663.328 1574.77 665.163 1573.96C666.997 1573.15 668.64 1572.06 670.091 1570.7C671.029 1569.8 671.819 1568.65 672.459 1567.24C673.141 1565.79 673.611 1564.23 673.867 1562.57H658.251V1556.17H680.587C680.843 1557.62 680.971 1558.86 680.971 1559.88C680.971 1562.78 680.501 1565.58 679.563 1568.26C678.667 1570.91 677.259 1573.21 675.339 1575.18C670.987 1579.74 665.312 1582.02 658.315 1582.02ZM702.315 1582.02C699.157 1582.02 696.32 1581.3 693.803 1579.85C691.285 1578.35 689.301 1576.33 687.851 1573.77C686.443 1571.21 685.739 1568.33 685.739 1565.13C685.739 1561.93 686.443 1559.05 687.851 1556.49C689.301 1553.93 691.285 1551.92 693.803 1550.47C696.32 1548.98 699.157 1548.23 702.315 1548.23C705.515 1548.23 708.373 1548.98 710.891 1550.47C713.408 1551.92 715.371 1553.93 716.779 1556.49C718.187 1559.05 718.891 1561.93 718.891 1565.13C718.891 1568.33 718.187 1571.21 716.779 1573.77C715.371 1576.33 713.408 1578.35 710.891 1579.85C708.373 1581.3 705.515 1582.02 702.315 1582.02ZM702.315 1575.56C704.021 1575.56 705.6 1575.13 707.051 1574.28C708.501 1573.43 709.675 1572.21 710.571 1570.63C711.467 1569.05 711.915 1567.22 711.915 1565.13C711.915 1562.99 711.467 1561.14 710.571 1559.56C709.675 1557.98 708.501 1556.79 707.051 1555.98C705.6 1555.12 704.021 1554.7 702.315 1554.7C700.651 1554.7 699.072 1555.12 697.579 1555.98C696.128 1556.79 694.955 1557.98 694.059 1559.56C693.205 1561.14 692.779 1562.99 692.779 1565.13C692.779 1567.22 693.227 1569.05 694.123 1570.63C695.019 1572.21 696.192 1573.43 697.643 1574.28C699.093 1575.13 700.651 1575.56 702.315 1575.56ZM739.815 1582.02C736.657 1582.02 733.82 1581.3 731.303 1579.85C728.785 1578.35 726.801 1576.33 725.351 1573.77C723.943 1571.21 723.239 1568.33 723.239 1565.13C723.239 1561.93 723.943 1559.05 725.351 1556.49C726.801 1553.93 728.785 1551.92 731.303 1550.47C733.82 1548.98 736.657 1548.23 739.815 1548.23C743.015 1548.23 745.873 1548.98 748.391 1550.47C750.908 1551.92 752.871 1553.93 754.279 1556.49C755.687 1559.05 756.391 1561.93 756.391 1565.13C756.391 1568.33 755.687 1571.21 754.279 1573.77C752.871 1576.33 750.908 1578.35 748.391 1579.85C745.873 1581.3 743.015 1582.02 739.815 1582.02ZM739.815 1575.56C741.521 1575.56 743.1 1575.13 744.551 1574.28C746.001 1573.43 747.175 1572.21 748.071 1570.63C748.967 1569.05 749.415 1567.22 749.415 1565.13C749.415 1562.99 748.967 1561.14 748.071 1559.56C747.175 1557.98 746.001 1556.79 744.551 1555.98C743.1 1555.12 741.521 1554.7 739.815 1554.7C738.151 1554.7 736.572 1555.12 735.079 1555.98C733.628 1556.79 732.455 1557.98 731.559 1559.56C730.705 1561.14 730.279 1562.99 730.279 1565.13C730.279 1567.22 730.727 1569.05 731.623 1570.63C732.519 1572.21 733.692 1573.43 735.143 1574.28C736.593 1575.13 738.151 1575.56 739.815 1575.56ZM776.867 1595.85C772.899 1595.85 769.613 1594.91 767.01 1593.03C764.451 1591.2 762.723 1589.04 761.827 1586.57L768.483 1583.82C769.123 1585.57 770.189 1586.95 771.683 1587.98C773.176 1589 774.904 1589.51 776.867 1589.51C779.811 1589.51 782.115 1588.62 783.779 1586.82C785.485 1585.03 786.339 1582.56 786.339 1579.4V1576.65H785.955C784.931 1578.14 783.523 1579.34 781.731 1580.23C779.981 1581.13 777.976 1581.58 775.715 1581.58C773.069 1581.58 770.595 1580.87 768.291 1579.46C766.029 1578.06 764.195 1576.09 762.786 1573.58C761.421 1571.02 760.739 1568.14 760.739 1564.94C760.739 1561.74 761.421 1558.88 762.786 1556.36C764.195 1553.8 766.029 1551.82 768.291 1550.41C770.595 1548.96 773.069 1548.23 775.715 1548.23C777.976 1548.23 779.981 1548.68 781.731 1549.58C783.523 1550.47 784.931 1551.67 785.955 1553.16H786.339V1549.26H793.059V1579.21C793.059 1582.71 792.355 1585.71 790.947 1588.23C789.581 1590.75 787.661 1592.65 785.187 1593.93C782.755 1595.21 779.981 1595.85 776.867 1595.85ZM777.059 1575.18C778.723 1575.18 780.259 1574.77 781.667 1573.96C783.075 1573.15 784.205 1571.98 785.059 1570.44C785.912 1568.86 786.339 1567.03 786.339 1564.94C786.339 1562.8 785.912 1560.97 785.059 1559.43C784.205 1557.85 783.075 1556.66 781.667 1555.85C780.259 1555.04 778.723 1554.63 777.059 1554.63C775.395 1554.63 773.859 1555.06 772.451 1555.91C771.043 1556.72 769.912 1557.92 769.059 1559.5C768.205 1561.03 767.779 1562.85 767.779 1564.94C767.779 1567.03 768.205 1568.86 769.059 1570.44C769.912 1571.98 771.043 1573.15 772.451 1573.96C773.859 1574.77 775.395 1575.18 777.059 1575.18ZM800.968 1535.18H808.008V1581H800.968V1535.18ZM830.248 1582.02C827.133 1582.02 824.317 1581.3 821.8 1579.85C819.325 1578.4 817.384 1576.39 815.976 1573.83C814.568 1571.23 813.864 1568.33 813.864 1565.13C813.864 1562.06 814.525 1559.24 815.848 1556.68C817.213 1554.08 819.112 1552.03 821.544 1550.54C823.976 1549 826.749 1548.23 829.864 1548.23C833.064 1548.23 835.837 1548.94 838.184 1550.34C840.573 1551.75 842.386 1553.71 843.624 1556.23C844.861 1558.71 845.479 1561.57 845.479 1564.81C845.479 1565.19 845.458 1565.58 845.416 1565.96C845.373 1566.34 845.352 1566.56 845.352 1566.6H820.904C821.117 1569.5 822.162 1571.74 824.04 1573.32C825.917 1574.9 828.05 1575.69 830.44 1575.69C834.109 1575.69 836.925 1573.98 838.888 1570.57L844.904 1573.45C843.496 1576.05 841.533 1578.14 839.016 1579.72C836.541 1581.26 833.618 1582.02 830.248 1582.02ZM838.312 1561.22C838.226 1560.2 837.885 1559.15 837.288 1558.09C836.69 1557.02 835.752 1556.13 834.472 1555.4C833.234 1554.63 831.677 1554.25 829.8 1554.25C827.709 1554.25 825.896 1554.89 824.36 1556.17C822.866 1557.45 821.842 1559.13 821.288 1561.22H838.312ZM852.681 1535.18H867.401C872.137 1535.18 876.254 1536.14 879.753 1538.06C883.294 1539.98 886.004 1542.69 887.881 1546.18C889.801 1549.64 890.761 1553.61 890.761 1558.09C890.761 1562.57 889.801 1566.56 887.881 1570.06C886.004 1573.51 883.294 1576.2 879.753 1578.12C876.254 1580.04 872.137 1581 867.401 1581H852.681V1535.18ZM867.209 1574.15C872.329 1574.15 876.318 1572.74 879.177 1569.93C882.078 1567.07 883.529 1563.12 883.529 1558.09C883.529 1553.1 882.078 1549.17 879.177 1546.31C876.318 1543.45 872.329 1542.02 867.209 1542.02H859.849V1574.15H867.209ZM911.931 1582.02C908.133 1582.02 904.72 1580.91 901.691 1578.7C898.661 1576.48 896.571 1573.36 895.419 1569.35L902.203 1566.6C902.885 1569.12 904.08 1571.19 905.787 1572.81C907.536 1574.39 909.627 1575.18 912.059 1575.18C914.32 1575.18 916.24 1574.6 917.819 1573.45C919.397 1572.25 920.187 1570.63 920.187 1568.58C920.187 1566.71 919.483 1565.17 918.075 1563.98C916.709 1562.74 914.299 1561.5 910.843 1560.26L907.963 1559.24C904.891 1558.17 902.309 1556.64 900.219 1554.63C898.128 1552.63 897.083 1549.98 897.083 1546.7C897.083 1544.43 897.701 1542.34 898.939 1540.42C900.176 1538.5 901.883 1536.99 904.059 1535.88C906.277 1534.73 908.773 1534.15 911.547 1534.15C915.557 1534.15 918.757 1535.13 921.147 1537.1C923.536 1539.02 925.136 1541.19 925.947 1543.62L919.483 1546.38C919.013 1544.93 918.117 1543.65 916.795 1542.54C915.472 1541.43 913.765 1540.87 911.675 1540.87C909.584 1540.87 907.813 1541.41 906.363 1542.47C904.955 1543.54 904.251 1544.9 904.251 1546.57C904.251 1548.15 904.891 1549.45 906.171 1550.47C907.451 1551.5 909.456 1552.48 912.187 1553.42L915.067 1554.38C918.992 1555.74 922.021 1557.53 924.155 1559.75C926.331 1561.93 927.419 1564.85 927.419 1568.52C927.419 1571.51 926.651 1574.02 925.115 1576.07C923.579 1578.08 921.616 1579.57 919.227 1580.55C916.88 1581.53 914.448 1582.02 911.931 1582.02ZM956.938 1582.02C952.501 1582.02 948.447 1580.98 944.778 1578.89C941.151 1576.8 938.293 1573.94 936.202 1570.31C934.111 1566.64 933.066 1562.57 933.066 1558.09C933.066 1553.61 934.111 1549.55 936.202 1545.93C938.293 1542.26 941.151 1539.38 944.778 1537.29C948.447 1535.2 952.501 1534.15 956.938 1534.15C963.807 1534.15 969.461 1536.65 973.898 1541.64L968.842 1546.57C967.263 1544.69 965.493 1543.3 963.53 1542.41C961.61 1541.47 959.413 1541 956.938 1541C953.866 1541 951.05 1541.7 948.49 1543.11C945.973 1544.52 943.967 1546.53 942.474 1549.13C941.023 1551.69 940.298 1554.67 940.298 1558.09C940.298 1561.5 941.023 1564.51 942.474 1567.11C943.967 1569.67 945.973 1571.66 948.49 1573.06C951.05 1574.47 953.866 1575.18 956.938 1575.18C962.058 1575.18 966.41 1573.04 969.994 1568.78L975.178 1573.77C973.002 1576.37 970.335 1578.4 967.178 1579.85C964.063 1581.3 960.65 1582.02 956.938 1582.02ZM997.619 1535.18H1014.83C1017.27 1535.18 1019.53 1535.71 1021.62 1536.78C1023.71 1537.84 1025.37 1539.31 1026.61 1541.19C1027.85 1543.07 1028.47 1545.14 1028.47 1547.4C1028.47 1549.66 1027.89 1551.62 1026.74 1553.29C1025.59 1554.95 1024.09 1556.21 1022.26 1557.06V1557.45C1024.61 1558.26 1026.48 1559.6 1027.89 1561.48C1029.3 1563.36 1030 1565.55 1030 1568.07C1030 1570.59 1029.34 1572.83 1028.02 1574.79C1026.74 1576.75 1024.99 1578.29 1022.77 1579.4C1020.59 1580.47 1018.21 1581 1015.6 1581H997.619V1535.18ZM1014.51 1554.38C1016.56 1554.38 1018.21 1553.74 1019.44 1552.46C1020.72 1551.18 1021.36 1549.7 1021.36 1548.04C1021.36 1546.38 1020.74 1544.93 1019.51 1543.69C1018.31 1542.41 1016.73 1541.77 1014.77 1541.77H1004.79V1554.38H1014.51ZM1015.6 1574.34C1017.78 1574.34 1019.51 1573.68 1020.79 1572.36C1022.11 1570.99 1022.77 1569.39 1022.77 1567.56C1022.77 1565.73 1022.09 1564.15 1020.72 1562.82C1019.4 1561.46 1017.61 1560.78 1015.35 1560.78H1004.79V1574.34H1015.6ZM1037.49 1535.18H1053.37C1056.05 1535.18 1058.53 1535.77 1060.79 1536.97C1063.09 1538.16 1064.91 1539.83 1066.23 1541.96C1067.59 1544.09 1068.28 1546.5 1068.28 1549.19C1068.28 1551.88 1067.59 1554.29 1066.23 1556.42C1064.91 1558.56 1063.09 1560.22 1060.79 1561.42C1058.53 1562.61 1056.05 1563.21 1053.37 1563.21H1044.66V1581H1037.49V1535.18ZM1053.56 1556.42C1055.09 1556.42 1056.44 1556.08 1057.59 1555.4C1058.74 1554.67 1059.62 1553.76 1060.21 1552.65C1060.81 1551.54 1061.11 1550.39 1061.11 1549.19C1061.11 1548 1060.81 1546.85 1060.21 1545.74C1059.62 1544.63 1058.74 1543.73 1057.59 1543.05C1056.44 1542.37 1055.09 1542.02 1053.56 1542.02H1044.66V1556.42H1053.56ZM1075.24 1535.18H1089.96C1094.7 1535.18 1098.82 1536.14 1102.32 1538.06C1105.86 1539.98 1108.57 1542.69 1110.44 1546.18C1112.36 1549.64 1113.32 1553.61 1113.32 1558.09C1113.32 1562.57 1112.36 1566.56 1110.44 1570.06C1108.57 1573.51 1105.86 1576.2 1102.32 1578.12C1098.82 1580.04 1094.7 1581 1089.96 1581H1075.24V1535.18ZM1089.77 1574.15C1094.89 1574.15 1098.88 1572.74 1101.74 1569.93C1104.64 1567.07 1106.09 1563.12 1106.09 1558.09C1106.09 1553.1 1104.64 1549.17 1101.74 1546.31C1098.88 1543.45 1094.89 1542.02 1089.77 1542.02H1082.41V1574.15H1089.77ZM1142.81 1582.02C1138.38 1582.02 1134.32 1580.98 1130.65 1578.89C1127.03 1576.8 1124.17 1573.94 1122.08 1570.31C1119.99 1566.64 1118.94 1562.57 1118.94 1558.09C1118.94 1553.61 1119.99 1549.55 1122.08 1545.93C1124.17 1542.26 1127.03 1539.38 1130.65 1537.29C1134.32 1535.2 1138.38 1534.15 1142.81 1534.15C1149.68 1534.15 1155.34 1536.65 1159.77 1541.64L1154.72 1546.57C1153.14 1544.69 1151.37 1543.3 1149.41 1542.41C1147.49 1541.47 1145.29 1541 1142.81 1541C1139.74 1541 1136.93 1541.7 1134.37 1543.11C1131.85 1544.52 1129.84 1546.53 1128.35 1549.13C1126.9 1551.69 1126.17 1554.67 1126.17 1558.09C1126.17 1561.5 1126.9 1564.51 1128.35 1567.11C1129.84 1569.67 1131.85 1571.66 1134.37 1573.06C1136.93 1574.47 1139.74 1575.18 1142.81 1575.18C1147.93 1575.18 1152.29 1573.04 1155.87 1568.78L1161.05 1573.77C1158.88 1576.37 1156.21 1578.4 1153.05 1579.85C1149.94 1581.3 1146.53 1582.02 1142.81 1582.02ZM1183.49 1535.18H1193.29L1206.41 1569.93H1206.79L1219.97 1535.18H1229.7V1581H1222.6V1555.34L1222.98 1547.08H1222.6L1209.48 1581H1203.72L1190.6 1547.08H1190.21L1190.6 1555.34V1581H1183.49V1535.18ZM1253.31 1582.02C1250.2 1582.02 1247.38 1581.3 1244.86 1579.85C1242.39 1578.4 1240.45 1576.39 1239.04 1573.83C1237.63 1571.23 1236.93 1568.33 1236.93 1565.13C1236.93 1562.06 1237.59 1559.24 1238.91 1556.68C1240.28 1554.08 1242.17 1552.03 1244.61 1550.54C1247.04 1549 1249.81 1548.23 1252.93 1548.23C1256.13 1548.23 1258.9 1548.94 1261.25 1550.34C1263.64 1551.75 1265.45 1553.71 1266.69 1556.23C1267.92 1558.71 1268.54 1561.57 1268.54 1564.81C1268.54 1565.19 1268.52 1565.58 1268.48 1565.96C1268.44 1566.34 1268.41 1566.56 1268.41 1566.6H1243.97C1244.18 1569.5 1245.22 1571.74 1247.1 1573.32C1248.98 1574.9 1251.11 1575.69 1253.5 1575.69C1257.17 1575.69 1259.99 1573.98 1261.95 1570.57L1267.97 1573.45C1266.56 1576.05 1264.6 1578.14 1262.08 1579.72C1259.6 1581.26 1256.68 1582.02 1253.31 1582.02ZM1261.37 1561.22C1261.29 1560.2 1260.95 1559.15 1260.35 1558.09C1259.75 1557.02 1258.81 1556.13 1257.53 1555.4C1256.3 1554.63 1254.74 1554.25 1252.86 1554.25C1250.77 1554.25 1248.96 1554.89 1247.42 1556.17C1245.93 1557.45 1244.9 1559.13 1244.35 1561.22H1261.37ZM1274.66 1549.26H1281.31V1553.48H1281.7C1282.63 1551.94 1284 1550.69 1285.79 1549.7C1287.58 1548.72 1289.46 1548.23 1291.42 1548.23C1293.73 1548.23 1295.73 1548.77 1297.44 1549.83C1299.15 1550.9 1300.4 1552.33 1301.22 1554.12C1302.32 1552.33 1303.8 1550.9 1305.63 1549.83C1307.51 1548.77 1309.64 1548.23 1312.03 1548.23C1315.74 1548.23 1318.56 1549.38 1320.48 1551.69C1322.4 1553.95 1323.36 1557.04 1323.36 1560.97V1581H1316.32V1562.12C1316.32 1559.47 1315.79 1557.58 1314.72 1556.42C1313.7 1555.27 1312.16 1554.7 1310.11 1554.7C1307.85 1554.7 1306.02 1555.63 1304.61 1557.51C1303.24 1559.35 1302.56 1561.59 1302.56 1564.23V1581H1295.52V1562.12C1295.52 1559.47 1294.99 1557.58 1293.92 1556.42C1292.85 1555.27 1291.25 1554.7 1289.12 1554.7C1286.9 1554.7 1285.11 1555.63 1283.74 1557.51C1282.38 1559.35 1281.7 1561.59 1281.7 1564.23V1581H1274.66V1549.26ZM1348.31 1582.02C1346.01 1582.02 1343.94 1581.53 1342.1 1580.55C1340.31 1579.57 1338.97 1578.33 1338.07 1576.84H1337.69V1581H1331.03V1535.18H1338.07V1548.94L1337.69 1553.35H1338.07C1338.97 1551.9 1340.31 1550.69 1342.1 1549.7C1343.94 1548.72 1346.01 1548.23 1348.31 1548.23C1351.04 1548.23 1353.56 1548.96 1355.86 1550.41C1358.21 1551.86 1360.07 1553.89 1361.43 1556.49C1362.84 1559.05 1363.54 1561.93 1363.54 1565.13C1363.54 1568.33 1362.84 1571.21 1361.43 1573.77C1360.07 1576.33 1358.21 1578.35 1355.86 1579.85C1353.56 1581.3 1351.04 1582.02 1348.31 1582.02ZM1347.09 1575.56C1348.76 1575.56 1350.29 1575.13 1351.7 1574.28C1353.15 1573.43 1354.31 1572.21 1355.16 1570.63C1356.05 1569.01 1356.5 1567.18 1356.5 1565.13C1356.5 1563.08 1356.05 1561.27 1355.16 1559.69C1354.31 1558.07 1353.15 1556.83 1351.7 1555.98C1350.29 1555.12 1348.76 1554.7 1347.09 1554.7C1345.43 1554.7 1343.87 1555.12 1342.42 1555.98C1341.01 1556.83 1339.86 1558.05 1338.97 1559.62C1338.11 1561.2 1337.69 1563.04 1337.69 1565.13C1337.69 1567.22 1338.11 1569.05 1338.97 1570.63C1339.86 1572.21 1341.01 1573.43 1342.42 1574.28C1343.87 1575.13 1345.43 1575.56 1347.09 1575.56ZM1384.25 1582.02C1381.13 1582.02 1378.32 1581.3 1375.8 1579.85C1373.32 1578.4 1371.38 1576.39 1369.98 1573.83C1368.57 1571.23 1367.86 1568.33 1367.86 1565.13C1367.86 1562.06 1368.52 1559.24 1369.85 1556.68C1371.21 1554.08 1373.11 1552.03 1375.54 1550.54C1377.98 1549 1380.75 1548.23 1383.86 1548.23C1387.06 1548.23 1389.84 1548.94 1392.18 1550.34C1394.57 1551.75 1396.39 1553.71 1397.62 1556.23C1398.86 1558.71 1399.48 1561.57 1399.48 1564.81C1399.48 1565.19 1399.46 1565.58 1399.42 1565.96C1399.37 1566.34 1399.35 1566.56 1399.35 1566.6H1374.9C1375.12 1569.5 1376.16 1571.74 1378.04 1573.32C1379.92 1574.9 1382.05 1575.69 1384.44 1575.69C1388.11 1575.69 1390.92 1573.98 1392.89 1570.57L1398.9 1573.45C1397.5 1576.05 1395.53 1578.14 1393.02 1579.72C1390.54 1581.26 1387.62 1582.02 1384.25 1582.02ZM1392.31 1561.22C1392.23 1560.2 1391.88 1559.15 1391.29 1558.09C1390.69 1557.02 1389.75 1556.13 1388.47 1555.4C1387.23 1554.63 1385.68 1554.25 1383.8 1554.25C1381.71 1554.25 1379.9 1554.89 1378.36 1556.17C1376.87 1557.45 1375.84 1559.13 1375.29 1561.22H1392.31ZM1405.59 1549.26H1412.25V1553.99H1412.63C1413.32 1552.37 1414.55 1551.03 1416.35 1549.96C1418.14 1548.85 1419.97 1548.3 1421.85 1548.3C1423.39 1548.3 1424.64 1548.51 1425.63 1548.94V1556.3C1424.17 1555.57 1422.55 1555.21 1420.76 1555.21C1418.46 1555.21 1416.52 1556.1 1414.94 1557.9C1413.4 1559.65 1412.63 1561.8 1412.63 1564.36V1581H1405.59V1549.26ZM1431.61 1549.06V1535.18H1438.78V1549.06L1438.01 1566.09H1432.32L1431.61 1549.06ZM1435.2 1581.38C1433.83 1581.38 1432.66 1580.91 1431.68 1579.98C1430.74 1578.99 1430.27 1577.82 1430.27 1576.46C1430.27 1575.09 1430.74 1573.94 1431.68 1573C1432.66 1572.06 1433.83 1571.59 1435.2 1571.59C1436.56 1571.59 1437.71 1572.06 1438.65 1573C1439.59 1573.94 1440.06 1575.09 1440.06 1576.46C1440.06 1577.82 1439.59 1578.99 1438.65 1579.98C1437.71 1580.91 1436.56 1581.38 1435.2 1581.38Z" fill="black"/>
</svg>
